<?xml version="1.0" encoding="utf-8"?>
<!DOCTYPE svg PUBLIC "-//W3C//DTD SVG 1.1//EN" "http://www.w3.org/Graphics/SVG/1.1/DTD/svg11.dtd">
<svg version="1.1" id="图形" xmlns="http://www.w3.org/2000/svg" xmlns:xlink="http://www.w3.org/1999/xlink" x="0px" y="0px" width="1024px" height="1024px" viewBox="0 0 1024 1024" enable-background="new 0 0 1024 1024" xml:space="preserve">
  <path fill="#272636" d="M888.450303 272.661352c0.191358 0.387833 0.37453 0.777713 0.560772 1.168616 0.306992 0.64673 0.606821 1.294482 0.8913 1.946328 0.093121 0.216941 0.182149 0.435928 0.273223 0.653893 0.349971 0.825808 0.683569 1.65264 0.9967 2.487657 0.008186 0.019443 0.014326 0.036839 0.021489 0.056282 2.626827 7.018857 3.989871 14.290471 4.148483 21.520129 0.01228 0.50449 0.002047 1.010003 0.00307 1.514493-0.001023 0.503467 0.00921 1.00898-0.00307 1.51347-0.157589 7.235798-1.52268 14.511505-4.1536 21.534456-0.004093 0.01228-0.008186 0.024559-0.014326 0.037862-0.315178 0.839111-0.650823 1.673106-1.001817 2.50403-0.091074 0.211824-0.176009 0.423649-0.267083 0.635473-0.286526 0.657986-0.589424 1.312902-0.899486 1.965771-0.182149 0.38374-0.36225 0.76748-0.550539 1.147126-0.254803 0.511653-0.521886 1.02126-0.791016 1.529843-0.268106 0.50449-0.538259 1.00591-0.817622 1.50426-0.11154 0.198521-0.211824 0.400113-0.325411 0.597611-0.132006 0.227174-0.275269 0.443092-0.408299 0.667196-0.318248 0.539282-0.645706 1.073448-0.981351 1.604544-0.255827 0.406253-0.517793 0.810459-0.781806 1.209548-0.325411 0.49221-0.661056 0.980327-1.001817 1.465374-0.308015 0.438998-0.6191 0.873903-0.936325 1.303692-0.296759 0.404206-0.603751 0.802272-0.912789 1.199315-0.387833 0.503467-0.781806 1.000793-1.181919 1.489934-0.240477 0.291642-0.485047 0.579191-0.731664 0.86674-0.494257 0.582261-0.9967 1.155313-1.508353 1.718131-0.159636 0.173962-0.322341 0.344854-0.484024 0.517793-0.6191 0.664126-1.25048 1.315972-1.893116 1.949398-0.065492 0.064468-0.134053 0.128937-0.199545 0.194428-4.38896 4.29277-9.295714 7.904017-14.57188 10.766205L271.142885 700.442228c-0.051165 0.028653-0.103354 0.054235-0.152473 0.082888-0.903579 0.518816-1.818415 1.01819-2.749624 1.49505-0.052189 0.027629-0.105401 0.054235-0.158612 0.081864-0.934279 0.476861-1.88186 0.932232-2.841721 1.36509-0.064468 0.029676-0.128937 0.058328-0.193405 0.086981-0.916882 0.410346-1.846044 0.799202-2.784416 1.168616-0.11461 0.045025-0.228197 0.090051-0.340761 0.135076-0.865717 0.333598-1.737574 0.648776-2.619664 0.946558-0.192382 0.064468-0.379647 0.12996-0.569982 0.192382-0.788969 0.257873-1.584078 0.499373-2.385327 0.728594-0.284479 0.081864-0.571005 0.165776-0.856507 0.243547-0.697895 0.189312-1.399883 0.363274-2.103918 0.531096-0.394996 0.093121-0.788969 0.186242-1.184989 0.273223-0.602727 0.130983-1.211595 0.25071-1.821485 0.364297-0.496304 0.093121-0.994654 0.184195-1.49198 0.26606-0.524956 0.084934-1.049912 0.161682-1.577938 0.234337-0.584308 0.081864-1.170662 0.157589-1.75497 0.223081-0.467651 0.052189-0.937348 0.097214-1.409093 0.13917-0.636496 0.057305-1.274016 0.106424-1.909489 0.146333-0.452301 0.027629-0.905626 0.050142-1.358951 0.067538-0.636496 0.025583-1.270946 0.041956-1.905396 0.048095-0.267083 0.00307-0.531096 0.020466-0.797156 0.020466-0.233314 0-0.462534-0.01535-0.694825-0.017396-0.538259-0.00614-1.076518-0.021489-1.614777-0.040932-0.62217-0.021489-1.24434-0.048095-1.861394-0.085958-0.349971-0.022513-0.696872-0.052189-1.045819-0.080841-0.807389-0.063445-1.610684-0.1361-2.409886-0.228197-0.106424-0.01228-0.210801-0.027629-0.318248-0.040932-10.728342-1.289366-20.667715-5.143137-29.17446-10.9504-0.13917-0.095167-0.274246-0.197498-0.410346-0.293689-0.707105-0.490164-1.411139-0.98749-2.096754-1.50426-0.384763-0.288572-0.7552-0.594541-1.133823-0.8913-0.441045-0.346901-0.88516-0.688685-1.318018-1.046842-0.456395-0.379647-0.900509-0.776689-1.347694-1.168616-0.348947-0.305969-0.703011-0.604774-1.044796-0.917906-0.428765-0.391926-0.845251-0.800225-1.263783-1.204431-0.358157-0.344854-0.718361-0.684592-1.068332-1.037632-0.347924-0.349971-0.684592-0.714268-1.022283-1.073448-0.420579-0.442068-0.839111-0.883113-1.246387-1.335415-0.242524-0.271176-0.477884-0.551562-0.715291-0.825808-0.50142-0.578168-0.997724-1.158383-1.477654-1.753947-0.135076-0.167822-0.26606-0.338714-0.400113-0.508583-0.583285-0.735757-1.152243-1.481747-1.704828-2.242064-0.035816-0.050142-0.070608-0.101307-0.106424-0.150426-7.821129-10.836813-12.441357-24.133653-12.441357-38.518269l0-159.911036c0-0.158612 0-0.318248 0-0.477884l0-522.328229c0-0.26913 0.017396-0.533143 0.021489-0.801249 0.007163-0.618077 0.021489-1.238201 0.046049-1.859347 0.019443-0.483001 0.044002-0.963954 0.073678-1.443885 0.035816-0.591471 0.080841-1.182942 0.134053-1.77339 0.047072-0.531096 0.098237-1.058099 0.156566-1.585101 0.058328-0.50756 0.124843-1.014096 0.193405-1.52268 0.084934-0.61603 0.172939-1.227967 0.274246-1.838881 0.065492-0.39295 0.13917-0.785899 0.210801-1.176802 0.134053-0.725524 0.277316-1.450025 0.433882-2.169409 0.058328-0.25992 0.118704-0.520863 0.180102-0.781806 0.197498-0.851391 0.409322-1.697665 0.639566-2.536776 0.034792-0.124843 0.071631-0.251733 0.107447-0.378623 0.274246-0.974188 0.567935-1.940189 0.88516-2.895957 0.002047-0.008186 0.005117-0.013303 0.007163-0.021489 2.131547-6.41613 5.217838-12.391215 9.097192-17.761526 0.024559-0.035816 0.050142-0.069585 0.074701-0.104377 0.564865-0.778736 1.146103-1.543146 1.743714-2.294252 0.12075-0.151449 0.237407-0.308015 0.360204-0.457418 0.496304-0.615007 1.007957-1.215688 1.526773-1.812275 0.222057-0.25685 0.440022-0.515746 0.665149-0.76748 0.425695-0.476861 0.86674-0.939395 1.307785-1.403976 0.320295-0.334621 0.63445-0.677429 0.959861-1.00591 0.37453-0.379647 0.763386-0.74599 1.14815-1.116427 0.393973-0.3776 0.782829-0.760317 1.182942-1.12666 0.376577-0.345877 0.766456-0.676405 1.152243-1.013073 0.411369-0.360204 0.819668-0.725524 1.240247-1.073448 0.478907-0.398066 0.971118-0.777713 1.461281-1.161453 0.329505-0.258896 0.653893-0.527003 0.988514-0.778736 0.744967-0.561795 1.50733-1.102101 2.276856-1.63422 0.077771-0.054235 0.153496-0.110517 0.233314-0.164752 8.525164-5.823636 18.49012-9.686616 29.248138-10.971889 0.076748-0.008186 0.152473-0.020466 0.232291-0.028653 0.822738-0.096191 1.651616-0.170892 2.486634-0.23536 0.321318-0.024559 0.645706-0.053212 0.969071-0.073678 0.64059-0.039909 1.284249-0.066515 1.929955-0.090051 0.515746-0.01842 1.030469-0.032746 1.547239-0.038886 0.2415-0.002047 0.479931-0.01842 0.723477-0.01842 0.277316 0 0.553609 0.017396 0.831948 0.021489 0.613984 0.007163 1.225921 0.022513 1.841951 0.047072 0.472767 0.01842 0.945535 0.042979 1.418302 0.070608 0.617054 0.038886 1.232061 0.085958 1.850138 0.141216 0.491187 0.042979 0.979304 0.091074 1.467421 0.146333 0.565888 0.062422 1.130753 0.137123 1.696642 0.215918 0.544399 0.073678 1.087774 0.153496 1.629103 0.2415 0.483001 0.079818 0.963954 0.167822 1.445932 0.257873 0.624217 0.11768 1.248434 0.23843 1.867534 0.373507 0.379647 0.083911 0.75827 0.173962 1.137916 0.26299 0.717338 0.168846 1.434675 0.347924 2.143826 0.540306 0.276293 0.074701 0.548492 0.154519 0.824785 0.234337 0.811482 0.232291 1.616824 0.475837 2.416026 0.738827 0.181125 0.059352 0.360204 0.12075 0.539282 0.183172 0.8913 0.300852 1.774413 0.618077 2.647293 0.956791 0.106424 0.040932 0.211824 0.082888 0.318248 0.125867 0.946558 0.370437 1.88186 0.763386 2.804882 1.175779 0.059352 0.024559 0.11768 0.052189 0.176009 0.079818 0.966001 0.434905 1.917676 0.892323 2.859118 1.372254 0.049119 0.024559 0.099261 0.050142 0.148379 0.074701 0.932232 0.479931 1.851161 0.979304 2.75781 1.502213 0.049119 0.027629 0.098237 0.052189 0.148379 0.080841l589.806063 340.523557c5.257747 2.854001 10.149151 6.455015 14.524808 10.730389 0.080841 0.077771 0.162706 0.155543 0.2415 0.234337 0.63138 0.62217 1.24741 1.25969 1.854231 1.910513 0.174985 0.186242 0.348947 0.370437 0.520863 0.557702 0.50142 0.549515 0.992607 1.111311 1.476631 1.682315 0.254803 0.298805 0.51063 0.597611 0.760317 0.901533 0.391926 0.477884 0.777713 0.964978 1.156336 1.456165 0.319272 0.407276 0.63138 0.817622 0.936325 1.231037 0.311085 0.418532 0.613984 0.845251 0.915859 1.27504 0.347924 0.493234 0.688685 0.992607 1.02126 1.494027 0.258896 0.390903 0.5137 0.784876 0.763386 1.181919 0.340761 0.539282 0.675382 1.084705 0.99977 1.633197 0.130983 0.220011 0.272199 0.430812 0.400113 0.654916 0.11154 0.192382 0.208754 0.390903 0.319272 0.584308 0.284479 0.505513 0.561795 1.016143 0.831948 1.528819C887.936603 271.654418 888.198569 272.155838 888.450303 272.661352z" transform="translate(0, 812) scale(1, -1)"/>
</svg>
