<?xml version="1.0" encoding="utf-8"?>
<!DOCTYPE svg PUBLIC "-//W3C//DTD SVG 1.1//EN" "http://www.w3.org/Graphics/SVG/1.1/DTD/svg11.dtd">
<svg version="1.1" id="图形" xmlns="http://www.w3.org/2000/svg" xmlns:xlink="http://www.w3.org/1999/xlink" x="0px" y="0px" width="1024px" height="1024px" viewBox="0 0 1024 1024" enable-background="new 0 0 1024 1024" xml:space="preserve">
  <path fill="#272636" d="M145.1141 671.1928c0 7.8623 2.9993 15.7235 8.9979 21.7221s13.8609 8.9979 21.7221 8.9979h226.531328c7.8623 0 15.7235-2.9993 21.7221-8.9979s8.9979-13.8609 8.9979-21.7221v-706.484224c0-7.8623-2.9993-15.7235-8.9979-21.7221-5.9986-5.9986-13.8609-8.9979-21.7221-8.9979H175.834112c-7.8623 0-15.7235 2.9993-21.7221 8.9979-5.9986 5.9976-8.9979 13.8598-8.9979 21.7221V671.192832zM625.067 671.1928c0 7.8623 2.9993 15.7235 8.9979 21.7221 5.9976 5.9986 13.8598 8.9979 21.7221 8.9979H882.31936c7.8623 0 15.7235-2.9993 21.7221-8.9979 5.9986-5.9986 8.9979-13.8609 8.9979-21.7221v-706.484224c0-7.8623-2.9993-15.7235-8.9979-21.7221-5.9976-5.9986-13.8598-8.9979-21.7221-8.9979H655.787008c-7.8623 0-15.7235 2.9993-21.7221 8.9979-5.9986 5.9976-8.9979 13.8598-8.9979 21.7221V671.192832z" transform="translate(0, 812) scale(1, -1)"/>
</svg>
