<?xml version="1.0" encoding="utf-8"?>
<!DOCTYPE svg PUBLIC "-//W3C//DTD SVG 1.1//EN" "http://www.w3.org/Graphics/SVG/1.1/DTD/svg11.dtd">
<svg version="1.1" id="图形" xmlns="http://www.w3.org/2000/svg" xmlns:xlink="http://www.w3.org/1999/xlink" x="0px" y="0px" width="1024px" height="1024px" viewBox="0 0 1024 1024" enable-background="new 0 0 1024 1024" xml:space="preserve">
  <path fill="#272636" d="M668.218948 652.576057c-28.889981-12.642948-35.515888-42.73736-14.44192-63.807235 10.229992-10.234085 19.859303-12.038174 61.992913-12.038174 58.994626 0 98.719372-15.647375 128.822994-50.564629 36.712133-41.533952 40.925085-54.171784 40.925085-130.018216 0-67.414389 0-68.623937 15.647375-77.649498 36.116569-20.465101 60.198034 4.817726 68.619844 72.232115 10.834766 87.884606-41.528835 190.216249-120.378671 237.162468C797.642622 657.988324 709.148126 670.031615 668.218948 652.576057L668.218948 652.576057 668.218948 652.576057zM372.072087 540.609986C304.651558 516.535685 239.640915 470.181961 169.821757 395.548146 4.290723 219.774841 15.125489 52.436648 197.507306-36.648296c189.612499-92.692099 444.830181-61.997006 583.879074 70.424956 104.136755 98.722442 91.496877 222.723617-27.091008 264.857227-21.068851 7.221472-27.690666 12.642948-24.682146 19.260669 10.834766 26.486234 14.44806 57.180304 8.43102 75.240635-18.665105 57.181327-86.676082 70.423933-187.803293 36.112476l-40.329521-13.843286 3.609201 40.333614c4.218068 47.550992-6.01704 73.432453-34.307364 87.87949C455.738625 555.661797 410.593426 554.456343 372.072087 540.609986L372.072087 540.609986 372.072087 540.609986zM539.41028 307.66047c89.684602-24.682146 144.460136-78.853929 144.460136-143.257751 0-71.627341-63.807235-136.038326-167.338193-170.350806-55.377238-18.055215-158.308539-21.673625-208.872145-7.825222-95.709829 27.085892-149.882636 80.054267-149.882636 148.078547 0 37.321 16.251126 69.819159 51.767014 102.927207 33.103956 31.298843 58.385758 46.350654 107.141182 62.602803C390.128325 324.51637 468.982254 327.523867 539.41028 307.66047L539.41028 307.66047zM349.798804 249.270619c-60.794621-28.291346-93.301989-71.628364-93.301989-125.805264 0-49.363268 21.668509-83.067904 69.223594-108.349707 36.716226-19.863397 104.136755-18.060331 145.065933 3.004427 52.367695 27.690666 86.680175 78.859046 86.680175 128.821971-0.608867 40.925085-36.72032 89.684602-79.458703 107.136066C443.700451 268.530264 385.910257 266.126518 349.798804 249.270619L349.798804 249.270619 349.798804 249.270619zM393.740596 136.112396c4.212952-4.218068 7.222495-14.452153 7.222495-23.476691 0-30.103622-50.564629-54.781674-71.033823-34.31248-11.434423 11.434423-8.420787 39.729863 4.817726 52.968375C347.994716 144.534206 382.302079 147.546819 393.740596 136.112396L393.740596 136.112396 393.740596 136.112396zM678.458149 529.175563c-27.694759-27.691689-9.029654-60.794621 34.908044-60.794621 37.920658 0 54.771441-19.264762 54.771441-62.602803 0-27.089985 2.413979-34.911114 13.247722-42.137703 32.507368-22.87294 58.993602 2.408863 58.993602 55.980989 0 65.606207-46.955428 114.970498-113.771183 119.78413C696.514387 541.818511 689.287799 540.010329 678.458149 529.175563L678.458149 529.175563 678.458149 529.175563zM678.458149 529.175563" transform="translate(0, 812) scale(1, -1)"/>
</svg>
