<?xml version="1.0" encoding="utf-8"?>
<!DOCTYPE svg PUBLIC "-//W3C//DTD SVG 1.1//EN" "http://www.w3.org/Graphics/SVG/1.1/DTD/svg11.dtd">
<svg version="1.1" id="图形" xmlns="http://www.w3.org/2000/svg" xmlns:xlink="http://www.w3.org/1999/xlink" x="0px" y="0px" width="1028px" height="1024px" viewBox="0 0 1028 1024" enable-background="new 0 0 1028 1024" xml:space="preserve">
  <path fill="#272636" d="M395.731085 240.803245l10.18176-10.18176q4.072704-4.072704 8.145408-7.63632t8.145408-7.63632l12.218112-12.218112q20.363521-20.363521 16.290817-35.636161t-25.454401-35.636161q-9.163584-10.18176-30.036193-31.054369t-44.799745-45.308833-46.32701-46.836098-34.617985-35.636161q-18.327169-18.327169-25.454401-32.072545t6.109056-26.981665q9.163584-9.163584 23.418049-24.436225t24.436225-25.454401q17.308993-17.308993 12.7272-30.545281t-30.036193-15.27264q-26.472577-3.054528-59.05421-7.127232t-67.199618-7.63632-67.708706-7.63632-60.581474-7.127232q-26.472577-3.054528-36.654337 6.618144t-8.145408 34.108897q2.036352 25.454401 5.599968 57.017858t7.63632 64.654178 7.63632 65.672354 6.618144 60.072386q3.054528 29.527105 16.799905 37.672513t31.054369-9.163584q10.18176-10.18176 26.472577-24.945313t27.490753-25.963489 21.381697-7.127232 23.418049 16.290817q13.236288 13.236288 36.145249 36.654337t47.854274 48.363362 48.363362 48.87245 37.672513 38.181601q6.109056 6.109056 13.745376 11.709024t16.799905 7.63632 18.836257-1.018176 20.872609-13.236288zM910.928158 753.963966q26.472577 3.054528 36.654337-6.618144t8.145408-34.108897q-2.036352-25.454401-5.599968-57.017858t-7.63632-64.654178-7.63632-66.181442-6.618144-60.581474q-3.054528-29.527105-16.799905-37.163425t-31.054369 9.672672q-10.18176 10.18176-27.999841 26.472577t-29.018017 27.490753-19.345345 9.672672-20.363521-13.745376q-14.254464-14.254464-37.163425-37.672513t-48.363362-49.381538-49.890626-50.399714l-37.672513-37.672513q-6.109056-6.109056-13.236288-12.218112t-15.781729-9.163584-18.327169-1.018176-19.854433 13.236288l-38.690689 38.690689q-20.363521 20.363521-17.818081 37.163425t22.908961 37.163425q9.163584 9.163584 30.545281 31.054369t45.817921 46.32701 47.345186 47.854274 36.145249 35.636161q18.327169 18.327169 22.908961 30.036193t-8.654496 24.945313q-9.163584 9.163584-21.890785 22.399873t-22.908961 23.418049q-17.308993 17.308993-12.7272 30.545281t30.036193 16.290817 58.545122 7.127232 67.708706 7.63632 67.708706 7.63632 60.581474 7.127232z" transform="translate(0, 812) scale(1, -1)"/>
</svg>
