<?xml version="1.0" encoding="utf-8"?>
<!DOCTYPE svg PUBLIC "-//W3C//DTD SVG 1.1//EN" "http://www.w3.org/Graphics/SVG/1.1/DTD/svg11.dtd">
<svg version="1.1" id="图形" xmlns="http://www.w3.org/2000/svg" xmlns:xlink="http://www.w3.org/1999/xlink" x="0px" y="0px" width="1024px" height="1024px" viewBox="0 0 1024 1024" enable-background="new 0 0 1024 1024" xml:space="preserve">
  <path fill="#272636" d="M657.031653 66.267655 797.444613-99.373896 938.440857 66.267655ZM304.738028 259.684806M729.544153 427.153982M595.52788 553.723655M247.224126 340.374546l80.682577 260.163321 80.882122-260.163321L247.224126 340.374546M400.604422 700.341944 277.642926 700.341944 93.664751 117.567018l85.248569 0 43.524283 138.698922 213.152635 0 44.234457-138.698922 106.775862 0L400.604422 700.341944M593.872171 252.605573l46.805002 124.310214 46.826492-124.310214L593.872171 252.605573M682.778036 434.791939l-71.234391 0L554.340829 280.420059l24.786523-77.788667 0.357134 1.122567 123.494639 0 25.695219-80.242556 61.748343 0L682.778036 434.791939" transform="translate(0, 812) scale(1, -1)"/>
</svg>
