<?xml version="1.0" encoding="utf-8"?>
<!DOCTYPE svg PUBLIC "-//W3C//DTD SVG 1.1//EN" "http://www.w3.org/Graphics/SVG/1.1/DTD/svg11.dtd">
<svg version="1.1" id="图形" xmlns="http://www.w3.org/2000/svg" xmlns:xlink="http://www.w3.org/1999/xlink" x="0px" y="0px" width="1024px" height="1024px" viewBox="0 0 1024 1024" enable-background="new 0 0 1024 1024" xml:space="preserve">
  <path fill="#272636" d="M92.288 612.64m-60.672 0a0.948 0.948 0 1 0 121.344 0 0.948 0.948 0 1 0-121.344 0ZM84.672 311.968m-60.736 0a0.949 0.949 0 1 0 121.472 0 0.949 0.949 0 1 0-121.472 0ZM84.672 9.76m-60.736 0a0.949 0.949 0 1 0 121.472 0 0.949 0.949 0 1 0-121.472 0ZM995.392 615.456c0-32-23.744-57.856-53.12-57.856L312.512 557.6c-29.376 0-53.184 25.92-53.184 57.856l0 0c0 31.936 23.744 57.856 53.184 57.856l629.696 0C971.648 673.312 995.392 647.392 995.392 615.456L995.392 615.456zM995.392 314.72c0-31.936-23.744-57.856-53.12-57.856L312.512 256.864c-29.376 0-53.184 25.92-53.184 57.856l0 0c0 32 23.744 57.856 53.184 57.856l629.696 0C971.648 372.64 995.392 346.72 995.392 314.72L995.392 314.72zM995.392 12.704c0-32-23.744-57.92-53.12-57.92L312.512-45.216c-29.376 0-53.184 25.92-53.184 57.92l0 0c0 31.872 23.744 57.792 53.184 57.792l629.696 0C971.648 70.496 995.392 44.576 995.392 12.704L995.392 12.704z" transform="translate(0, 812) scale(1, -1)"/>
</svg>
