<?xml version="1.0" encoding="utf-8"?>
<!DOCTYPE svg PUBLIC "-//W3C//DTD SVG 1.1//EN" "http://www.w3.org/Graphics/SVG/1.1/DTD/svg11.dtd">
<svg version="1.1" id="图形" xmlns="http://www.w3.org/2000/svg" xmlns:xlink="http://www.w3.org/1999/xlink" x="0px" y="0px" width="1024px" height="1024px" viewBox="0 0 1024 1024" enable-background="new 0 0 1024 1024" xml:space="preserve">
  <path fill="#272636" d="M279.9 566.5 80 43.5l73.3 0L211 202.3l218.8 0 61.1-158.8 77.7 0L355.4 566.5 279.9 566.5zM231 257.8l57.7 153.3c12.2 33.3 21.1 66.6 27.8 99.9 7.8-27.8 20-64.4 36.6-108.8l54.4-144.4L231 257.8zM926.2 89c-2.2 15.5-4.4 53.3-4.4 113.3l0 85.5c0 28.9-1.1 47.8-3.3 58.9-3.3 17.8-10 32.2-20 43.3-10 11.1-24.4 21.1-44.4 28.9-20 7.8-46.6 11.1-78.8 11.1s-61.1-4.4-85.5-13.3-43.3-21.1-56.6-37.8c-13.3-16.7-22.2-37.8-27.8-65.5l63.3-8.9c6.7 26.7 17.8 45.5 32.2 56.6s36.6 15.5 66.6 15.5c32.2 0 56.6-7.8 73.3-22.2 12.2-11.1 17.8-28.9 17.8-55.5 0-2.2 0-7.8 0-16.7-24.4-8.9-62.2-15.5-114.4-22.2-25.5-3.3-44.4-6.7-56.6-10-16.7-4.4-32.2-12.2-46.6-21.1-13.3-8.9-24.4-21.1-33.3-36.6-8.9-15.5-12.2-32.2-12.2-51.1 0-31.1 11.1-57.7 33.3-77.7 22.2-20 54.4-30 95.5-30 25.5 0 48.9 4.4 71.1 12.2 22.2 7.8 44.4 22.2 68.9 43.3 2.2-17.8 6.7-33.3 13.3-46.6L944 42.4C935.1 57.9 929.6 73.4 926.2 89zM857.4 210c0-27.8-3.3-50-10-64.4-8.9-18.9-23.3-33.3-42.2-44.4-18.9-11.1-41.1-16.7-65.5-16.7-24.4 0-44.4 5.6-56.6 16.7-13.3 11.1-18.9 25.5-18.9 43.3 0 11.1 3.3 21.1 8.9 30 5.6 8.9 14.4 16.7 25.5 21.1 11.1 4.4 30 8.9 55.5 13.3 46.6 6.7 81.1 14.4 104.4 24.4L857.4 210 857.4 210z" transform="translate(0, 812) scale(1, -1)"/>
</svg>
