<?xml version="1.0" encoding="utf-8"?>
<!-- Generated by IcoMoon.io -->
<!DOCTYPE svg PUBLIC "-//W3C//DTD SVG 1.1//EN" "http://www.w3.org/Graphics/SVG/1.1/DTD/svg11.dtd">
<svg version="1.1" xmlns="http://www.w3.org/2000/svg" xmlns:xlink="http://www.w3.org/1999/xlink" width="31" height="32" viewBox="0 0 31 32">
<path fill="#444444" d="M0.134 12.099c0 0 0-0.462 0-0.462s25.15 0 25.15 0c0 0 3.445 0.021 4.619-1.207 0 0 0.787 0.371 0.787 0.371s0 1.299 0 1.299c0 0-30.556 0-30.556 0zM16.827 8.006c0 0 4.431 0 4.431 0s3.445 0.021 4.619-1.207c0 0 0.786 0.37 0.786 0.37s0 1.299 0 1.299c0 0-9.836 0-9.836 0s0 3.149 0 3.149c0 0-2.62 0-2.62 0s0-3.149 0-3.149c0 0-9.986 0-9.986 0s0-0.462 0-0.462c0 0 9.986 0 9.986 0s0-3.15 0-3.15c0 0-12.118 0-12.118 0s0-0.462 0-0.462c0 0 12.118 0 12.118 0s0-4.361 0-4.361c0 0 2.62 0.444 2.62 0.444s0 3.917 0 3.917c0 0 6.503 0 6.503 0s3.445 0.021 4.62-1.208c0 0 0.786 0.371 0.786 0.371s0 1.299 0 1.299c0 0-11.909 0-11.909 0s0 3.15 0 3.15zM10.060 21.221c0 0 1.503 1.463 1.503 1.463-3.215 4.005-8.178 5.53-8.178 5.53s-1.728-1.969-1.728-1.969c6.188-1.678 8.403-5.024 8.403-5.024zM14.208 27.022c0 0-0.001 0-0.001 0s0-5.633 0-5.633c0 0 2.62 0.444 2.62 0.444s0 5.189 0 5.189c0 0-0.001 0-0.001 0-0.011 4.241-2.783 4.944-2.783 4.944s-1.214-3.020-1.214-3.020c1.378-0.248 1.384-1.723 1.378-1.925zM24.013 16.798c0 0 0 3.975 0 3.975s-1.299 0-1.299 0c0 0-1.322 0-1.322 0s-12.727 0-12.727 0c-1.327 0.48-2.168 0.717-2.168 0.717s-1.244-2.047-1.244-2.047c2.558-0.608 4.981-1.609 7.020-2.627 0 0-3.734 0-3.734 0-0.973 0.366-1.687 0.576-1.687 0.576s-1.243-2.047-1.243-2.047c3.65-0.989 6.32-2.947 6.32-2.947s1.27 1.869 1.27 1.869c-0.862 0.827-2.25 1.546-3.509 2.086 0 0 3.48 0 3.48 0 2.973-1.575 4.934-3.059 4.934-3.059s1.338 1.8 1.338 1.8c-3.171 2.453-6.908 4.18-9.55 5.216 0 0 11.501 0 11.501 0s0-3.957 0-3.957c0 0 2.62 0.444 2.62 0.444zM29.216 26.267c0 0-1.648 1.961-1.648 1.961-3.554-3.312-8.336-5.54-8.336-5.54s1.036-1.48 1.036-1.48c4.958 1.995 8.948 5.060 8.948 5.060z"></path>
</svg>
