<?xml version="1.0" encoding="utf-8"?>
<!DOCTYPE svg PUBLIC "-//W3C//DTD SVG 1.1//EN" "http://www.w3.org/Graphics/SVG/1.1/DTD/svg11.dtd">
<svg version="1.1" id="图形" xmlns="http://www.w3.org/2000/svg" xmlns:xlink="http://www.w3.org/1999/xlink" x="0px" y="0px" width="1024px" height="1024px" viewBox="0 0 1024 1024" enable-background="new 0 0 1024 1024" xml:space="preserve">
  <path fill="#272636" d="M912 594.857143q16-16 27.428571-43.428571t11.428571-50.285714l0-658.285714q0-22.857143-16-38.857143t-38.857143-16l-768 0q-22.857143 0-38.857143 16t-16 38.857143l0 914.285714q0 22.857143 16 38.857143t38.857143 16l512 0q22.857143 0 50.285714-11.428571t43.428571-27.428571zm-253.714286 139.428571l0-214.857143 214.857143 0q-5.714286 16.571429-12.571429 23.428571l-178.857143 178.857143q-6.857143 6.857143-23.428571 12.571429zm219.428571-873.142857l0 585.142857-237.714286 0q-22.857143 0-38.857143 16t-16 38.857143l0 237.714286-438.857143 0 0-877.714286 731.428571 0zm-73.142857 256l0-182.857143-585.142857 0 0 109.714286 109.714286 109.714286 73.142857-73.142857 219.428571 219.428571zm-475.428571 109.714286q-45.714286 0-77.714286 32t-32 77.714286 32 77.714286 77.714286 32 77.714286-32 32-77.714286-32-77.714286-77.714286-32z" transform="translate(0, 812) scale(1, -1)"/>
</svg>
