<?xml version="1.0" encoding="utf-8"?>
<!DOCTYPE svg PUBLIC "-//W3C//DTD SVG 1.1//EN" "http://www.w3.org/Graphics/SVG/1.1/DTD/svg11.dtd">
<svg version="1.1" id="图形" xmlns="http://www.w3.org/2000/svg" xmlns:xlink="http://www.w3.org/1999/xlink" x="0px" y="0px" width="1024px" height="1024px" viewBox="0 0 1024 1024" enable-background="new 0 0 1024 1024" xml:space="preserve">
  <path fill="#272636" d="M316.030212 691.983579c15.309684 1.752924 30.919197 2.688225 46.75486 2.753717l3.634784 0c15.848966-0.071631 31.520901-0.997724 46.924729-2.753717 6.229888-0.713244 12.412704-1.567705 18.561751-2.540869 4.842285-0.771573 9.658987-1.6158 14.455223-2.544963 4.063549-0.788969 8.108678-1.64036 12.132318-2.540869 3.579525-0.806365 7.144724-1.653663 10.69048-2.544963 3.211135-0.812505 6.40078-1.663896 9.570983-2.544963 2.951215-0.816598 5.874801-1.666966 8.79941-2.544963 2.718925-0.819668 5.436826-1.670036 8.143471-2.541893 2.540869-0.826831 5.082762-1.673106 7.603165-2.543939 2.397606-0.826831 4.77577-1.674129 7.144724-2.540869 2.26253-0.829901 4.516874-1.681292 6.763031-2.544963 2.145873-0.829901 4.2897-1.681292 6.421246-2.544963 2.049682-0.832971 4.086062-1.680269 6.120394-2.544963 1.968841-0.832971 3.922333-1.677199 5.862521-2.540869 1.885953-0.837064 3.770883-1.681292 5.629207-2.543939 1.803066-0.833995 3.592828-1.684362 5.383614-2.541893 1.734504-0.832971 3.455705-1.687432 5.163603-2.544963 1.681292-0.837064 3.348258-1.684362 5.0142-2.543939 1.627057-0.841158 3.25309-1.681292 4.864798-2.544963 1.557472-0.833995 3.115967-1.687432 4.660136-2.541893 1.502213-0.836041 3.018753-1.687432 4.507664-2.544963 1.474584-0.840134 2.951215-1.680269 4.41352-2.540869 1.422396-0.840134 2.841721-1.687432 4.248767-2.544963 1.393743-0.837064 2.759857-1.687432 4.126994-2.544963 1.351787-0.840134 2.704598-1.683339 4.043083-2.540869 1.311879-0.836041 2.610454-1.690502 3.908006-2.543939 1.269923-0.841158 2.527566-1.687432 3.798513-2.540869 1.242294-0.847298 2.498914-1.684362 3.729951-2.544963 1.203408-0.837064 2.391467-1.690502 3.594875-2.540869 1.173732-0.844228 2.362814-1.687432 3.523243-2.544963 1.147126-0.840134 2.296299-1.690502 3.431146-2.544963 1.119497-0.840134 2.238994-1.690502 3.347235-2.540869 1.105171-0.847298 2.199085-1.687432 3.291976-2.544963 1.066285-0.840134 2.118244-1.690502 3.170203-2.543939 1.051959-0.844228 2.117221-1.687432 3.1569-2.541893 1.010003-0.840134 2.023076-1.697665 3.018753-2.543939 0.997724-0.844228 2.00875-1.687432 2.993171-2.544963 0.983397-0.840134 1.940189-1.690502 2.895957-2.540869 0.957815-0.844228 1.912559-1.690502 2.856048-2.544963 0.942465-0.840134 1.857301-1.690502 2.787486-2.541893 0.916882-0.843204 1.816369-1.690502 2.717901-2.543939 0.902556-0.844228 1.789763-1.691525 2.664689-2.544963 0.873903-0.844228 1.749854-1.690502 2.609431-2.544963 0.861624-0.840134 1.708921-1.690502 2.540869-2.541893 0.847298-0.844228 1.682315-1.690502 2.50096-2.540869 0.819668-0.847298 1.626034-1.694595 2.446725-2.544963 0.791016-0.844228 1.599428-1.690502 2.390443-2.544963 0.778736-0.843204 1.557472-1.693572 2.335185-2.543939 0.766456-0.843204 1.530866-1.690502 2.282996-2.540869 0.751107-0.844228 1.502213-1.694595 2.240017-2.544963 0.73678-0.844228 1.462305-1.690502 2.198062-2.540869 0.711198-0.844228 1.422396-1.694595 2.13257-2.544963 0.710175-0.847298 1.420349-1.690502 2.117221-2.544963 0.682545-0.840134 1.352811-1.693572 2.035356-2.540869 0.668219-0.846274 1.366114-1.690502 2.035356-2.544963 0.654916-0.843204 1.285273-1.697665 1.940189-2.543939 0.64059-0.847298 1.297552-1.690502 1.940189-2.540869 0.627287-0.844228 1.242294-1.697665 1.871627-2.544963 0.615007-0.844228 1.243317-1.690502 1.843998-2.541893 0.61603-0.847298 1.203408-1.697665 1.790786-2.544963 0.600681-0.847298 1.188058-1.694595 1.763157-2.540869 0.586354-0.846274 1.160429-1.693572 1.735527-2.543939 0.558725-0.847298 1.118474-1.693572 1.680269-2.544963 0.546446-0.847298 1.106194-1.690502 1.65264-2.541893 0.546446-0.843204 1.065262-1.697665 1.599428-2.543939 0.518816-0.850367 1.064238-1.691525 1.584078-2.544963 0.51984-0.844228 1.011027-1.694595 1.517563-2.540869 0.503467-0.846274 1.010003-1.693572 1.515516-2.544963 0.491187-0.844228 0.969071-1.694595 1.461281-2.540869 0.479931-0.847298 0.944512-1.697665 1.422396-2.544963 0.464581-0.850367 0.955768-1.694595 1.407046-2.543939 0.464581-0.844228 0.901533-1.694595 1.352811-2.544963 0.436952-0.847298 0.901533-1.690502 1.338485-2.540869 0.437975-0.847298 0.847298-1.694595 1.284249-2.544963 0.424672-0.843204 0.847298-1.694595 1.257643-2.540869 0.409322-0.847298 0.832971-1.694595 1.24434-2.544963 0.396019-0.844228 0.777713-1.694595 1.173732-2.544963 0.396019-0.847298 0.805342-1.690502 1.188058-2.543939 0.382717-0.840134 0.738827-1.694595 1.121544-2.541893 0.369414-0.847298 0.737804-1.694595 1.091868-2.544963 0.369414-0.847298 0.724501-1.694595 1.080611-2.540869 0.356111-0.844228 0.683569-1.697665 1.02433-2.544963 0.341784-0.847298 0.696872-1.690502 1.038656-2.544963 0.327458-0.843204 0.642636-1.693572 0.957815-2.543939 0.327458-0.844228 0.64059-1.690502 0.955768-2.540869 0.316202-0.847298 0.615007-1.694595 0.929162-2.544963 0.286526-0.844228 0.575098-1.694595 0.873903-2.541893 0.286526-0.847298 0.587378-1.694595 0.873903-2.544963 0.274246-0.843204 0.546446-1.693572 0.820692-2.540869 0.272199-0.847298 0.533143-1.697665 0.791016-2.544963 0.274246-0.847298 0.533143-1.694595 0.792039-2.544963 0.245593-0.844228 0.493234-1.694595 0.724501-2.541893 0.246617-0.847298 0.491187-1.693572 0.737804-2.543939 0.233314-0.847298 0.451278-1.694595 0.683569-2.544963 0.218988-0.843204 0.437975-1.694595 0.656963-2.540869 0.203638-0.847298 0.436952-1.694595 0.655939-2.544963 0.204661-0.844228 0.382717-1.697665 0.573051-2.540869 0.205685-0.847298 0.398066-1.694595 0.587378-2.544963 0.12382-0.550539 0.25992-1.100054 0.38374-1.650593l0-0.016373c-6.463202 0.720408-12.95301 1.301645-19.48375 1.666966-4.959965 0.280386-9.94756 0.433882-14.96176 0.433882-5.682419 0-11.340279-0.153496-16.940834-0.433882-9.332553-0.470721-18.526959-1.325182-27.599591-2.541893-5.383614-0.723477-10.711969-1.570775-15.986089-2.544963-4.1536-0.771573-8.265244-1.62194-12.350283-2.543939-3.52529-0.799202-7.036253-1.633197-10.507308-2.540869-3.075035-0.803295-6.121418-1.656733-9.155521-2.544963-2.758834-0.812505-5.505387-1.662873-8.237615-2.544963-2.52859-0.816598-5.04183-1.666966-7.54279-2.540869-2.335185-0.822738-4.672416-1.670036-6.979972-2.544963-2.187829-0.822738-4.360308-1.674129-6.51846-2.544963-2.048659-0.826831-4.098341-1.673106-6.120394-2.543939-1.940189-0.829901-3.880377-1.674129-5.791913-2.540869-1.846044-0.833995-3.677762-1.677199-5.507434-2.544963-1.735527-0.827855-3.456728-1.684362-5.177929-2.541893-1.666966-0.832971-3.319605-1.684362-4.974291-2.544963-1.598404-0.836041-3.182482-1.680269-4.76656-2.543939-1.544169-0.837064-3.089361-1.677199-4.604878-2.544963-1.474584-0.829901-2.923586-1.683339-4.372587-2.540869-1.420349-0.837064-2.827395-1.684362-4.234441-2.544963-1.381463-0.840134-2.747577-1.681292-4.114714-2.540869-1.325182-0.837064-2.622734-1.687432-3.927449-2.544963-1.284249-0.837064-2.555196-1.687432-3.812839-2.544963-1.25662-0.840134-2.499937-1.680269-3.729951-2.540869-1.202385-0.836041-2.37714-1.693572-3.560082-2.540869-1.167592-0.844228-2.328022-1.690502-3.475148-2.543939-1.134847-0.844228-2.269693-1.687432-3.390213-2.544963-1.092891-0.837064-2.172479-1.690502-3.258207-2.540869-1.073448-0.847298-2.153036-1.684362-3.218298-2.544963-1.037632-0.837064-2.048659-1.694595-3.067872-2.544963-1.01819-0.844228-2.028193-1.686409-3.025916-2.541893-0.983397-0.839111-1.953492-1.693572-2.923586-2.543939-0.962931-0.840134-1.919722-1.687432-2.869351-2.540869-0.929162-0.844228-1.858324-1.694595-2.787486-2.544963-0.908696-0.843204-1.810229-1.690502-2.705622-2.541893-0.887206-0.847298-1.775436-1.690502-2.663666-2.543939-0.861624-0.844228-1.715061-1.694595-2.569522-2.544963-0.847298-0.843204-1.693572-1.690502-2.526543-2.540869-0.826831-0.844228-1.64036-1.694595-2.446725-2.544963-0.805342-0.847298-1.61887-1.690502-2.418073-2.544963-0.778736-0.840134-1.557472-1.693572-2.322905-2.543939-0.772596-0.844228-1.544169-1.690502-2.302439-2.540869-0.74599-0.844228-1.482771-1.694595-2.220574-2.544963-0.737804-0.844228-1.462305-1.690502-2.185782-2.540869-0.718361-0.843204-1.422396-1.693572-2.131547-2.543939-0.696872-0.844228-1.393743-1.690502-2.077312-2.544963-0.682545-0.843204-1.36509-1.690502-2.034333-2.543939-0.670266-0.841158-1.325182-1.691525-1.982144-2.540869-0.654916-0.844228-1.304715-1.691525-1.946328-2.544963-0.635473-0.840134-1.257643-1.694595-1.877767-2.540869-0.62831-0.848321-1.257643-1.690502-1.871627-2.544963-0.601704-0.840134-1.190105-1.693572-1.790786-2.543939-0.587378-0.847298-1.195222-1.687432-1.77646-2.540869-0.587378-0.844228-1.147126-1.697665-1.706875-2.544963-0.574075-0.847298-1.133823-1.690502-1.694595-2.544963-0.553609-0.841158-1.092891-1.691525-1.639337-2.541893-0.540306-0.843204-1.072425-1.693572-1.599428-2.543939-0.532119-0.844228-1.065262-1.690502-1.585101-2.540869-0.505513-0.843204-1.011027-1.697665-1.51654-2.544963-0.49835-0.847298-1.011027-1.690502-1.509377-2.540869-0.48607-0.844228-0.956791-1.697665-1.441838-2.544963-0.477884-0.847298-0.955768-1.694595-1.420349-2.544963-0.464581-0.843204-0.929162-1.693572-1.387603-2.540869-0.457418-0.847298-0.895393-1.693572-1.345648-2.543939-0.443092-0.847298-0.900509-1.690502-1.338485-2.543939-0.423649-0.844228-0.832971-1.694595-1.25662-2.540869-0.423649-0.847298-0.853437-1.694595-1.264806-2.549056-0.416486-0.839111-0.812505-1.686409-1.208525-2.539846-0.404206-0.841158-0.793062-1.694595-1.189082-2.541893-0.382717-0.847298-0.778736-1.693572-1.161453-2.548032-0.382717-0.840134-0.73678-1.693572-1.106194-2.540869-0.36839-0.846274-0.75213-1.686409-1.106194-2.540869-0.356111-0.846274-0.705058-1.693572-1.052982-2.540869-0.346901-0.846274-0.696872-1.693572-1.02433-2.547009-0.341784-0.847298-0.696872-1.686409-1.025353-2.539846-0.327458-0.847298-0.62831-1.694595-0.949628-2.540869-0.320295-0.847298-0.641613-1.695618-0.949628-2.549056-0.314155-0.847298-0.615007-1.693572-0.915859-2.540869-0.299829-0.847298-0.587378-1.694595-0.873903-2.540869-0.286526-0.854461-0.594541-1.694595-0.874927-2.540869-0.285502-0.847298-0.532119-1.700735-0.805342-2.548032-0.274246-0.847298-0.546446-1.693572-0.806365-2.540869-0.25992-0.847298-0.525979-1.693572-0.779759-2.540869-0.245593-0.847298-0.484024-1.701758-0.729617-2.549056-0.239454-0.846274-0.49835-1.686409-0.730641-2.540869-0.232291-0.847298-0.451278-1.693572-0.683569-2.540869-0.217964-0.847298-0.437975-1.700735-0.656963-2.548032-0.217964-0.846274-0.450255-1.685385-0.654916-2.539846-0.205685-0.846274-0.388856-1.701758-0.588401-2.547009-0.205685-0.840134-0.396019-1.687432-0.586354-2.540869-0.192382-0.847298-0.382717-1.694595-0.567935-2.540869-0.184195-0.847298-0.347924-1.694595-0.51984-2.540869-0.170892-0.847298-0.347924-1.695618-0.511653-2.549056-0.163729-0.847298-0.327458-1.693572-0.477884-2.540869-0.150426-0.847298-0.300852-1.694595-0.451278-2.548032-0.144286-0.840134-0.308015-1.687432-0.451278-2.540869-0.1361-0.840134-0.251733-1.693572-0.382717-2.540869-0.12996-0.847298-0.258896-1.693572-0.382717-2.540869-0.12382-0.847298-0.258896-1.693572-0.369414-2.549056-0.10847-0.839111-0.204661-1.693572-0.306992-2.540869-0.102331-0.846274-0.210801-1.693572-0.306992-2.540869-0.095167-0.845251-0.204661-1.692548-0.294712-2.545986-0.088004-0.840134-0.156566-1.694595-0.23843-2.540869-0.081864-0.847298-0.163729-1.694595-0.232291-2.540869-0.074701-0.847298-0.149403-1.694595-0.216941-2.548032-0.062422-0.840134-0.110517-1.694595-0.164752-2.540869-0.054235-0.847298-0.122797-1.694595-0.170892-2.540869-0.047072-0.847298-0.089028-1.694595-0.128937-2.541893-0.040932-0.847298-0.068562-1.700735-0.103354-2.548032-0.033769-0.847298-0.075725-1.693572-0.102331-2.540869-0.027629-0.847298-0.035816-1.693572-0.048095-2.540869-0.020466-0.847298-0.027629-1.700735-0.033769-2.548032-0.013303-0.847298-0.041956-1.693572-0.041956-2.540869l0-0.26606c0-0.75827 0-1.51654 0.013303-2.275833 0-0.853437 0.01535-1.700735 0.034792-2.548032 0.014326-0.845251 0.033769-1.693572 0.062422-2.540869 0.026606-0.846274 0.054235-1.693572 0.089028-2.540869 0.033769-0.853437 0.074701-1.700735 0.115634-2.547009 0.041956-0.847298 0.081864-1.694595 0.137123-2.540869 0.048095-0.847298 0.109494-1.694595 0.163729-2.540869 0.055259-0.854461 0.12382-1.694595 0.192382-2.541893 0.068562-0.853437 0.1361-1.699712 0.218988-2.547009 0.067538-0.847298 0.149403-1.694595 0.232291-2.540869 0.088004-0.847298 0.177032-1.701758 0.272199-2.549056 0.088004-0.847298 0.192382-1.693572 0.287549-2.540869 0.102331-0.847298 0.203638-1.693572 0.314155-2.540869 0.10847-0.847298 0.232291-1.693572 0.347924-2.540869 0.116657-0.853437 0.23843-1.700735 0.36225-2.547009 0.12996-0.846274 0.258896-1.693572 0.396019-2.540869 0.137123-0.846274 0.274246-1.700735 0.424672-2.547009 0.1361-0.847298 0.285502-1.694595 0.436952-2.541893 0.149403-0.847298 0.314155-1.694595 0.470721-2.541893 0.156566-0.846274 0.322341-1.693572 0.49221-2.540869 0.170892-0.853437 0.340761-1.700735 0.518816-2.547009 0.170892-0.847298 0.355087-1.694595 0.539282-2.540869 0.191358-0.847298 0.382717-1.694595 0.573051-2.540869 0.191358-0.854461 0.38374-1.700735 0.588401-2.548032 0.204661-0.847298 0.409322-1.693572 0.62217-2.540869 0.210801-0.847298 0.422625-1.694595 0.641613-2.540869 0.217964-0.854461 0.444115-1.701758 0.662079-2.549056 0.233314-0.847298 0.465604-1.693572 0.697895-2.539846 0.232291-0.847298 0.477884-1.693572 0.716314-2.540869l0.416486-1.440815c-6.011924-0.472767-12.050454-0.854461-18.116613-1.100054-5.069459-0.211824-10.166547-0.328481-15.275915-0.328481-4.945639 0-9.79611 0.109494-14.550391 0.328481-10.042727 0.444115-19.701714 1.331321-29.212322 2.540869-5.806239 0.737804-11.558244 1.591241-17.311271 2.540869-4.78191 0.792039-9.550517 1.645476-14.352893 2.539846-4.330632 0.814552-8.682753 1.667989-13.08297 2.549056-4.125971 0.826831-8.292873 1.673106-12.522198 2.540869-4.077875 0.840134-8.218172 1.687432-12.419867 2.540869-3.873214 0.792039-7.807826 1.585101-11.811 2.37714l-4.740978-2.37714-5.069459-2.540869-5.075599-2.540869-5.075599-2.549056-5.069459-2.539846-5.068436-2.540869-5.075599-2.540869-5.075599-2.548032-5.069459-2.540869-5.069459-2.540869-5.075599-2.547009-5.075599-2.541893-5.069459-2.541893-5.068436-2.547009-5.082762-2.540869-5.069459-2.540869-5.068436-2.548032-5.075599-2.540869-5.075599-2.539846-5.069459-2.549056-5.069459-2.540869-5.082762-2.540869-5.069459-2.548032-5.069459-2.540869-3.613294-1.811252 0.600681 1.811252 0.847298 2.540869 0.840134 2.548032 0.847298 2.540869 0.847298 2.540869 0.847298 2.549056 0.847298 2.539846 0.847298 2.540869 0.847298 2.548032 0.840134 2.540869 0.847298 2.540869 0.840134 2.547009 0.847298 2.541893 0.847298 2.541893 0.847298 2.547009 0.847298 2.540869 0.847298 2.540869 0.847298 2.548032 0.840134 2.540869 0.847298 2.540869 0.847298 2.539846 0.840134 2.549056 0.847298 2.540869 0.847298 2.540869 0.847298 2.548032 0.847298 2.540869 0.847298 2.540869 0.847298 2.547009 0.840134 2.540869 0.847298 2.541893 0.847298 2.541893 0.840134 2.547009 0.847298 2.540869 0.847298 2.547009 0.847298 2.540869 0.847298 2.540869 0.847298 2.540869 0.847298 2.549056 0.841158 2.540869 0.847298 2.547009 0.840134 2.541893 0.847298 2.540869 0.49221 1.481747c-0.499373 0.356111-0.997724 0.710175-1.489934 1.059122-1.202385 0.846274-2.40477 1.693572-3.585665 2.547009-1.181919 0.840134-2.349511 1.694595-3.518127 2.540869-1.14815 0.847298-2.302439 1.695618-3.443425 2.540869-1.133823 0.847298-2.254344 1.694595-3.373841 2.548032-1.12052 0.840134-2.220574 1.687432-3.320629 2.540869-1.092891 0.840134-2.172479 1.693572-3.258207 2.540869-1.073448 0.847298-2.13871 1.694595-3.203972 2.548032-1.051959 0.847298-2.103918 1.687432-3.142573 2.540869-1.02433 0.847298-2.055822 1.693572-3.074012 2.540869-1.011027 0.847298-2.022053 1.693572-3.019777 2.548032-0.997724 0.840134-1.981121 1.686409-2.964518 2.541893-0.976234 0.846274-1.953492 1.693572-2.910283 2.540869-0.962931 0.846274-1.918699 1.693572-2.869351 2.540869-0.936325 0.847298-1.871627 1.693572-2.800789 2.548032-0.915859 0.846274-1.831718 1.693572-2.746554 2.540869-0.901533 0.846274-1.804089 1.693572-2.692319 2.540869-0.887206 0.845251-1.775436 1.692548-2.650363 2.545986-0.873903 0.840134-1.741667 1.687432-2.602268 2.540869-0.853437 0.847298-1.694595 1.695618-2.534729 2.540869-0.840134 0.848321-1.673106 1.695618-2.499937 2.549056-0.819668 0.840134-1.64036 1.687432-2.445702 2.540869-0.806365 0.847298-1.619894 1.693572-2.418073 2.540869-0.786922 0.847298-1.558495 1.694595-2.337231 2.540869-0.778736 0.847298-1.544169 1.700735-2.309602 2.548032-0.757247 0.847298-1.51654 1.693572-2.267647 2.540869-0.737804 0.847298-1.482771 1.693572-2.213411 2.549056-0.737804 0.839111-1.447978 1.693572-2.172479 2.540869-0.710175 0.846274-1.421372 1.693572-2.125407 2.540869-0.704035 0.846274-1.399883 1.693572-2.089591 2.540869-0.689708 0.845251-1.359974 1.692548-2.042519 2.547009-0.669242 0.847298-1.325182 1.693572-1.995447 2.539846-0.654916 0.847298-1.303692 1.694595-1.953492 2.548032-0.641613 0.840134-1.291412 1.693572-1.925862 2.540869-0.62831 0.840134-1.243317 1.694595-1.858324 2.540869-0.621147 0.847298-1.230014 1.694595-1.843998 2.549056-0.600681 0.840134-1.202385 1.687432-1.796926 2.540869-0.588401 0.840134-1.168616 1.693572-1.74883 2.540869-0.581238 0.847298-1.14815 1.693572-1.715061 2.548032-0.560772 0.840134-1.12666 1.686409-1.681292 2.540869-0.553609 0.846274-1.092891 1.693572-1.639337 2.540869-0.533143 0.847298-1.066285 1.693572-1.598404 2.540869-0.51984 0.847298-1.052982 1.693572-1.571798 2.549056-0.505513 0.838088-1.01819 1.693572-1.523703 2.540869-0.49835 0.846274-0.99056 1.692548-1.482771 2.539846-0.49221 0.846274-0.983397 1.693572-1.462305 2.547009-0.477884 0.840134-0.942465 1.687432-1.420349 2.540869-0.465604 0.847298-0.915859 1.694595-1.38044 2.540869-0.450255 0.847298-0.901533 1.694595-1.351787 2.540869-0.437975 0.847298-0.874927 1.694595-1.304715 2.548032-0.429789 0.847298-0.853437 1.694595-1.278109 2.541893-0.423649 0.847298-0.840134 1.693572-1.249457 2.539846-0.410346 0.847298-0.813528 1.698688-1.209548 2.549056-0.396019 0.843204-0.785899 1.690502-1.174756 2.540869-0.382717 0.846274-0.778736 1.693572-1.14815 2.543939-0.382717 0.843204-0.743944 1.693572-1.107217 2.543939-0.36839 0.844228-0.724501 1.690502-1.078565 2.540869-0.356111 0.848321-0.711198 1.694595-1.052982 2.544963-0.340761 0.844228-0.682545 1.690502-1.011027 2.544963-0.334621 0.844228-0.669242 1.690502-0.983397 2.540869-0.327458 0.847298-0.642636 1.693572-0.956791 2.544963-0.315178 0.843204-0.615007 1.693572-0.915859 2.540869-0.300852 0.847298-0.615007 1.694595-0.901533 2.543939-0.286526 0.847298-0.574075 1.694595-0.853437 2.541893-0.280386 0.847298-0.553609 1.693572-0.826831 2.544963-0.273223 0.847298-0.546446 1.694595-0.806365 2.544963-0.258896 0.844228-0.512676 1.694595-0.765433 2.540869-0.25378 0.847298-0.505513 1.693572-0.75213 2.543939-0.23843 0.844228-0.470721 1.694595-0.696872 2.544963-0.232291 0.847298-0.464581 1.693572-0.689708 2.540869-0.226151 0.847298-0.444115 1.694595-0.662079 2.544963-0.204661 0.847298-0.409322 1.693572-0.615007 2.540869-0.205685 0.847298-0.410346 1.693572-0.600681 2.543939-0.191358 0.848321-0.382717 1.694595-0.560772 2.544963-0.191358 0.846274-0.36839 1.693572-0.546446 2.543939-0.178055 0.847298-0.347924 1.693572-0.518816 2.540869-0.164752 0.847298-0.321318 1.694595-0.477884 2.544963-0.150426 0.847298-0.315178 1.693572-0.464581 2.540869-0.150426 0.847298-0.286526 1.697665-0.423649 2.543939-0.1361 0.847298-0.273223 1.694595-0.409322 2.544963-0.12996 0.847298-0.25992 1.690502-0.382717 2.544963-0.115634 0.843204-0.232291 1.690502-0.341784 2.540869-0.115634 0.847298-0.232291 1.694595-0.334621 2.544963-0.102331 0.843204-0.197498 1.693572-0.293689 2.543939-0.096191 0.844228-0.191358 1.691525-0.280386 2.541893-0.089028 0.847298-0.157589 1.694595-0.23843 2.544963-0.082888 0.844228-0.157589 1.690502-0.226151 2.540869-0.068562 0.847298-0.1361 1.693572-0.197498 2.543939-0.061398 0.844228-0.116657 1.690502-0.163729 2.541893-0.055259 0.847298-0.109494 1.694595-0.157589 2.544963-0.047072 0.847298-0.074701 1.694595-0.115634 2.544963-0.033769 0.843204-0.074701 1.690502-0.109494 2.540869-0.027629 0.847298-0.040932 1.694595-0.061398 2.544963-0.020466 0.847298-0.033769 1.693572-0.048095 2.543939-0.013303 0.843204-0.013303 1.693572-0.027629 2.540869 0 0.433882-0.013303 0.867764-0.013303 1.304715 0 0.413416 0.021489 0.823761 0.027629 1.236154 0 0.854461 0.020466 1.698688 0.034792 2.544963 0.00614 0.851391 0.020466 1.698688 0.033769 2.544963 0.020466 0.847298 0.040932 1.694595 0.067538 2.540869 0.027629 0.853437 0.074701 1.697665 0.109494 2.544963 0.040932 0.851391 0.067538 1.697665 0.116657 2.540869 0.047072 0.851391 0.081864 1.701758 0.12996 2.544963 0.054235 0.850367 0.128937 1.697665 0.190335 2.543939 0.055259 0.850367 0.12382 1.697665 0.191358 2.544963 0.068562 0.847298 0.12382 1.697665 0.198521 2.541893 0.074701 0.853437 0.184195 1.697665 0.26606 2.544963 0.082888 0.850367 0.164752 1.697665 0.25992 2.540869 0.096191 0.846274 0.178055 1.701758 0.273223 2.543939 0.10847 0.851391 0.232291 1.693572 0.340761 2.544963 0.109494 0.847298 0.226151 1.697665 0.341784 2.544963 0.122797 0.847298 0.218988 1.697665 0.348947 2.540869 0.128937 0.853437 0.279363 1.694595 0.416486 2.544963 0.1361 0.847298 0.274246 1.697665 0.410346 2.544963 0.149403 0.847298 0.273223 1.697665 0.423649 2.540869 0.157589 0.850367 0.341784 1.693572 0.49835 2.543939 0.157589 0.847298 0.321318 1.697665 0.49835 2.544963 0.163729 0.844228 0.315178 1.694595 0.499373 2.541893 0.177032 0.853437 0.382717 1.694595 0.566912 2.544963 0.191358 0.847298 0.382717 1.697665 0.574075 2.540869 0.198521 0.847298 0.382717 1.697665 0.587378 2.544963 0.204661 0.850367 0.429789 1.693572 0.641613 2.540869 0.218988 0.850367 0.423649 1.697665 0.649799 2.544963 0.225127 0.847298 0.437975 1.697665 0.670266 2.543939 0.232291 0.850367 0.484024 1.694595 0.729617 2.541893 0.239454 0.850367 0.478907 1.697665 0.724501 2.544963 0.252757 0.847298 0.49835 1.697665 0.75213 2.544963 0.258896 0.850367 0.546446 1.694595 0.812505 2.540869 0.26606 0.847298 0.525979 1.697665 0.806365 2.544963 0.280386 0.851391 0.559748 1.697665 0.840134 2.541893 0.287549 0.853437 0.601704 1.697665 0.895393 2.544963 0.293689 0.847298 0.581238 1.697665 0.88823 2.540869 0.306992 0.853437 0.621147 1.697665 0.936325 2.543939 0.314155 0.851391 0.648776 1.698688 0.970094 2.544963 0.327458 0.847298 0.641613 1.700735 0.970094 2.544963 0.341784 0.850367 0.696872 1.693572 1.038656 2.540869 0.347924 0.850367 0.696872 1.697665 1.050935 2.544963 0.356111 0.847298 0.696872 1.701758 1.060145 2.541893 0.36839 0.853437 0.75827 1.697665 1.139963 2.543939 0.369414 0.850367 0.75213 1.700735 1.133823 2.544963 0.38374 0.847298 0.765433 1.697665 1.161453 2.544963 0.397043 0.850367 0.820692 1.693572 1.230014 2.540869 0.397043 0.850367 0.806365 1.697665 1.215688 2.544963 0.423649 0.850367 0.847298 1.693572 1.270946 2.540869 0.437975 0.850367 0.873903 1.697665 1.311879 2.544963 0.436952 0.846274 0.867764 1.700735 1.311879 2.543939 0.450255 0.850367 0.929162 1.694595 1.393743 2.544963 0.464581 0.847298 0.929162 1.697665 1.400906 2.540869 0.470721 0.847298 0.935302 1.701758 1.427512 2.544963 0.478907 0.850367 0.983397 1.694595 1.482771 2.540869 0.499373 0.847298 0.983397 1.700735 1.489934 2.544963 0.512676 0.850367 1.031493 1.697665 1.551332 2.543939 0.518816 0.851391 1.051959 1.694595 1.584078 2.541893 0.533143 0.847298 1.051959 1.701758 1.592264 2.544963 0.546446 0.853437 1.113357 1.693572 1.674129 2.543939 0.559748 0.847298 1.106194 1.697665 1.681292 2.540869 0.574075 0.851391 1.14815 1.697665 1.734504 2.544963 0.587378 0.851391 1.174756 1.697665 1.77646 2.541893 0.587378 0.847298 1.174756 1.700735 1.77646 2.544963 0.615007 0.853437 1.257643 1.693572 1.87879 2.540869 0.621147 0.850367 1.236154 1.701758 1.871627 2.543939 0.642636 0.851391 1.291412 1.698688 1.946328 2.544963 0.649799 0.851391 1.311879 1.694595 1.967818 2.540869 0.670266 0.850367 1.332345 1.700735 2.00875 2.544963 0.683569 0.854461 1.38658 1.697665 2.083451 2.544963 0.690732 0.847298 1.373277 1.700735 2.083451 2.540869 0.711198 0.853437 1.449002 1.697665 2.173502 2.544963 0.729617 0.850367 1.461281 1.700735 2.199085 2.540869 0.744967 0.853437 1.496074 1.701758 2.254344 2.543939 0.75827 0.854461 1.529843 1.701758 2.302439 2.544963 0.778736 0.847298 1.551332 1.700735 2.343371 2.544963 0.792039 0.850367 1.611707 1.694595 2.418073 2.540869 0.807389 0.847298 1.612731 1.704828 2.432399 2.541893 0.832971 0.856507 1.694595 1.697665 2.540869 2.544963 0.847298 0.850367 1.681292 1.703805 2.540869 2.544963 0.874927 0.857531 1.77646 1.693572 2.657526 2.543939 0.88823 0.847298 1.769296 1.701758 2.670829 2.541893 0.915859 0.856507 1.845021 1.700735 2.77316 2.544963 0.929162 0.850367 1.858324 1.700735 2.800789 2.540869 0.956791 0.853437 1.919722 1.700735 2.882654 2.544963 0.984421 0.854461 1.954515 1.704828 2.944052 2.543939 1.003863 0.854461 2.015913 1.697665 3.02694 2.541893 1.02433 0.853437 2.049682 1.703805 3.088338 2.543939 1.050935 0.856507 2.110057 1.701758 3.170203 2.544963 1.078565 0.851391 2.158153 1.701758 3.237741 2.540869 1.106194 0.857531 2.226714 1.698688 3.347235 2.544963 1.127683 0.850367 2.254344 1.704828 3.39533 2.544963 1.168616 0.853437 2.343371 1.697665 3.524267 2.540869 1.182942 0.851391 2.371 1.707898 3.560082 2.544963 1.243317 0.857531 2.492774 1.697665 3.743254 2.540869 1.249457 0.850367 2.499937 1.707898 3.76372 2.543939 1.304715 0.857531 2.616594 1.700735 3.935636 2.540869 1.331321 0.857531 2.670829 1.707898 4.016477 2.544963 1.372254 0.856507 2.746554 1.706875 4.133134 2.544963 1.420349 0.860601 2.855024 1.700735 4.2897 2.540869 1.462305 0.853437 2.910283 1.711991 4.378727 2.544963 1.51654 0.860601 3.053546 1.701758 4.584412 2.541893 1.563612 0.860601 3.142573 1.706875 4.713348 2.544963 1.612731 0.853437 3.224438 1.710968 4.850471 2.543939 1.687432 0.864694 3.394307 1.701758 5.103228 2.544963 1.741667 0.860601 3.5038 1.707898 5.266957 2.541893 1.817392 0.856507 3.62762 1.714038 5.458315 2.543939 1.899256 0.864694 3.804652 1.707898 5.725398 2.540869 1.987261 0.867764 4.003174 1.711991 6.018064 2.544963 2.083451 0.867764 4.181229 1.710968 6.29845 2.544963 2.186805 0.86367 4.400217 1.715061 6.613628 2.544963 2.322905 0.867764 4.64581 1.714038 6.995321 2.540869 2.473331 0.870834 4.951779 1.718131 7.446599 2.543939 2.64934 0.871857 5.314029 1.722224 7.992021 2.541893 2.869351 0.881067 5.76633 1.725294 8.662287 2.544963 3.142573 0.884137 6.311753 1.727341 9.496282 2.544963 3.490497 0.8913 7.008624 1.738597 10.547217 2.544963 3.948939 0.898463 7.925507 1.7519 11.93482 2.540869 4.748141 0.932232 9.544377 1.772366 14.352893 2.544963C303.62467 690.418944 309.800323 691.269311 316.030212 691.983579L316.030212 691.983579zM614.915439 283.2802c-17.816784 0-35.783994-17.932418-35.783994-35.770691 0-18.090007 17.96721-35.769668 35.783994-35.769668 27.03882 0 44.759413 17.679661 44.759413 35.769668C659.674852 265.347782 641.954259 283.2802 614.915439 283.2802L614.915439 283.2802zM811.621497 283.2802c-17.680684 0-35.524075-17.932418-35.524075-35.770691 0-18.090007 17.84339-35.769668 35.524075-35.769668 26.806529 0 44.75839 17.679661 44.75839 35.769668C856.379886 265.347782 838.428026 283.2802 811.621497 283.2802L811.621497 283.2802zM248.317017 542.681158c-26.806529 0-53.858652-17.71036-53.858652-44.605917 0-26.838252 27.052123-44.769646 53.858652-44.769646s44.63764 17.932418 44.63764 44.769646C292.954657 524.971821 275.123546 542.681158 248.317017 542.681158L248.317017 542.681158zM498.609527 453.304572c26.924209 0 44.766576 17.932418 44.766576 44.769646 0 26.89658-17.84339 44.605917-44.766576 44.605917-26.807552 0-53.709249-17.71036-53.709249-44.605917C444.900278 471.236989 471.801974 453.304572 498.609527 453.304572L498.609527 453.304572zM488.389768 342.051745c0.765433 0.724501 1.557472 1.440815 2.336208 2.162246 0.792039 0.720408 1.570775 1.444908 2.369977 2.159176 0.812505 0.726547 1.633197 1.440815 2.451842 2.162246 0.833995 0.720408 1.648546 1.444908 2.487657 2.158153 0.847298 0.726547 1.706875 1.441838 2.568499 2.158153 0.873903 0.724501 1.721201 1.449002 2.595105 2.162246 0.901533 0.727571 1.805112 1.441838 2.705622 2.162246 0.915859 0.721431 1.818415 1.445932 2.733251 2.158153 0.942465 0.727571 1.892093 1.442862 2.841721 2.162246 0.956791 0.721431 1.905396 1.445932 2.869351 2.158153 0.998747 0.727571 1.995447 1.445932 2.984984 2.162246 1.01205 0.724501 2.023076 1.444908 3.048429 2.158153 1.02433 0.727571 2.076288 1.449002 3.128247 2.162246 1.066285 0.727571 2.145873 1.444908 3.224438 2.158153 1.091868 0.724501 2.186805 1.451048 3.279696 2.162246 1.1328 0.730641 2.294252 1.444908 3.429099 2.159176 1.162476 0.724501 2.322905 1.451048 3.483334 2.162246 1.204431 0.730641 2.433422 1.444908 3.648087 2.159176 1.230014 0.727571 2.472308 1.451048 3.730974 2.162246 1.269923 0.726547 2.554172 1.451048 3.838422 2.162246 1.325182 0.730641 2.679016 1.443885 4.0175 2.158153 1.366114 0.727571 2.747577 1.451048 4.125971 2.162246 1.421372 0.724501 2.840698 1.449002 4.276397 2.159176 1.489934 0.734734 2.978844 1.444908 4.482081 2.162246 1.544169 0.727571 3.088338 1.451048 4.644787 2.158153 1.599428 0.731664 3.212158 1.455141 4.823865 2.162246 1.681292 0.734734 3.388167 1.451048 5.096065 2.158153 1.762133 0.737804 3.552919 1.455141 5.342682 2.162246 1.871627 0.734734 3.743254 1.455141 5.629207 2.159176 1.966795 0.737804 3.947915 1.458211 5.943362 2.162246 2.104941 0.737804 4.207835 1.462305 6.326079 2.159176 2.255367 0.744967 4.508687 1.462305 6.789637 2.162246 2.433422 0.748037 4.878101 1.465374 7.351432 2.162246 2.664689 0.751107 5.344728 1.469468 8.048303 2.159176 2.963495 0.75827 5.944386 1.478677 8.947789 2.159176 3.348258 0.76134 6.708795 1.49198 10.111289 2.162246 4.045129 0.795109 8.130168 1.502213 12.242835 2.158153 5.205559 0.832971 10.465352 1.554402 15.780405 2.162246 13.198603 1.506307 26.698059 2.308579 40.428781 2.346441l1.899256 0c12.979616-0.037862 25.836435-0.841158 38.501896-2.346441 5.096065-0.607844 10.165524-1.329275 15.193027-2.162246 3.962242-0.655939 7.925507-1.363044 11.845793-2.158153 3.294023-0.670266 6.558369-1.400906 9.825786-2.162246 2.922563-0.683569 5.832845-1.400906 8.715499-2.159176 2.638083-0.689708 5.26184-1.407046 7.883551-2.159176 2.405793-0.696872 4.809539-1.414209 7.201006-2.162246 2.226714-0.699941 4.454452-1.417279 6.667863-2.162246 2.089591-0.696872 4.166903-1.421372 6.229888-2.159176 1.967818-0.704035 3.921309-1.424442 5.862521-2.162246 1.871627-0.704035 3.716648-1.424442 5.561669-2.159176 1.775436-0.706081 3.550873-1.424442 5.300726-2.162246 1.693572-0.707105 3.38919-1.424442 5.055133-2.158153 1.612731-0.707105 3.210112-1.430582 4.796236-2.162246 1.544169-0.707105 3.088338-1.430582 4.632507-2.158153 1.487887-0.714268 2.990101-1.427512 4.465708-2.162246 1.434675-0.710175 2.855024-1.434675 4.27742-2.159176 1.38044-0.710175 2.746554-1.434675 4.124947-2.162246 1.340531-0.714268 2.693342-1.427512 4.0175-2.158153 1.299599-0.711198 2.582825-1.435699 3.853771-2.162246 1.257643-0.714268 2.514263-1.434675 3.75758-2.162246 1.216711-0.714268 2.445702-1.428535 3.648087-2.159176 1.188058-0.710175 2.349511-1.437745 3.510964-2.162246 1.162476-0.714268 2.308579-1.428535 3.456728-2.159176 1.121544-0.710175 2.214435-1.437745 3.320629-2.162246 1.091868-0.714268 2.172479-1.430582 3.252067-2.158153 1.065262-0.714268 2.118244-1.434675 3.169179-2.162246 1.039679-0.714268 2.050706-1.434675 3.075035-2.158153 1.010003-0.717338 2.023076-1.434675 3.019777-2.162246 0.983397-0.713244 1.952468-1.437745 2.922563-2.158153 0.956791-0.720408 1.926886-1.434675 2.88163-2.162246 0.929162-0.713244 1.846044-1.437745 2.774183-2.158153 0.916882-0.720408 1.846044-1.434675 2.747577-2.162246 0.887206-0.713244 1.763157-1.437745 2.650363-2.162246 0.873903-0.716314 1.74883-1.430582 2.622734-2.158153 0.847298-0.714268 1.694595-1.438769 2.52859-2.158153 0.833995-0.721431 1.681292-1.435699 2.498914-2.162246 0.821715-0.714268 1.627057-1.438769 2.433422-2.159176 0.792039-0.721431 1.598404-1.437745 2.391467-2.162246 0.777713-0.718361 1.544169-1.438769 2.322905-2.159176 0.76441-0.721431 1.528819-1.437745 2.28095-2.162246 0.751107-0.718361 1.487887-1.437745 2.238994-2.159176 0.725524-0.717338 1.449002-1.437745 2.173502-2.162246 0.724501-0.721431 1.446955-1.434675 2.158153-2.159176 0.695848-0.717338 1.38044-1.440815 2.076288-2.162246 0.682545-0.720408 1.39272-1.434675 2.076288-2.162246 0.669242-0.710175 1.311879-1.437745 1.982144-2.159176 0.655939-0.720408 1.325182-1.434675 1.981121-2.162246 0.642636-0.713244 1.270946-1.437745 1.912559-2.162246 0.62831-0.717338 1.257643-1.434675 1.886977-2.159176 0.627287-0.717338 1.243317-1.434675 1.857301-2.158153 0.599657-0.717338 1.188058-1.441838 1.789763-2.162246 0.599657-0.720408 1.201361-1.434675 1.789763-2.159176 0.587378-0.717338 1.147126-1.441838 1.707898-2.162246 0.573051-0.720408 1.14815-1.434675 1.721201-2.162246 0.545422-0.717338 1.107217-1.437745 1.653663-2.162246 0.546446-0.714268 1.079588-1.434675 1.610684-2.159176 0.547469-0.717338 1.079588-1.434675 1.612731-2.159176 0.51984-0.717338 1.025353-1.440815 1.543146-2.162246 0.506537-0.717338 1.026376-1.434675 1.530866-2.162246 0.506537-0.713244 0.997724-1.434675 1.489934-2.158153 0.491187-0.717338 0.969071-1.437745 1.462305-2.159176 0.478907-0.720408 0.969071-1.437745 1.433652-2.162246 0.477884-0.714268 0.916882-1.441838 1.381463-2.158153 0.464581-0.721431 0.929162-1.437745 1.379417-2.162246 0.451278-0.717338 0.88823-1.437745 1.325182-2.157129 0.437975-0.721431 0.873903-1.442862 1.299599-2.162246 0.435928-0.721431 0.887206-1.438769 1.310855-2.162246 0.409322-0.717338 0.805342-1.441838 1.215688-2.158153 0.410346-0.717338 0.820692-1.441838 1.230014-2.159176 0.396019-0.722454 0.793062-1.441838 1.189082-2.165316 0.381693-0.709151 0.76441-1.434675 1.14815-2.158153 0.382717-0.716314 0.763386-1.434675 1.146103-2.158153 0.369414-0.716314 0.738827-1.441838 1.092891-2.159176 0.36839-0.716314 0.724501-1.441838 1.080611-2.164293 0.355087-0.717338 0.723477-1.435699 1.065262-2.159176 0.341784-0.716314 0.669242-1.441838 0.997724-2.158153 0.341784-0.716314 0.669242-1.440815 0.9967-2.158153 0.327458-0.717338 0.670266-1.439792 0.984421-2.165316 0.315178-0.710175 0.615007-1.433652 0.929162-2.159176 0.315178-0.716314 0.62831-1.432629 0.929162-2.158153 0.300852-0.716314 0.601704-1.439792 0.887206-2.158153 0.300852-0.723477 0.575098-1.439792 0.861624-2.165316 0.286526-0.717338 0.574075-1.433652 0.847298-2.159176 0.285502-0.716314 0.546446-1.439792 0.819668-2.158153 0.25992-0.716314 0.51984-1.439792 0.778736-2.158153 0.260943-0.723477 0.533143-1.439792 0.778736-2.165316 0.25992-0.716314 0.49221-1.439792 0.738827-2.159176 0.232291-0.716314 0.478907-1.439792 0.710175-2.157129 0.232291-0.724501 0.490164-1.440815 0.710175-2.157129 0.232291-0.725524 0.436952-1.441838 0.656963-2.166339 0.217964-0.717338 0.435928-1.440815 0.64059-2.157129 0.205685-0.725524 0.438998-1.435699 0.642636-2.159176 0.204661-0.718361 0.382717-1.441838 0.575098-2.166339 0.190335-0.717338 0.381693-1.433652 0.573051-2.157129 0.192382-0.718361 0.38374-1.435699 0.559748-2.158153 0.192382-0.719384 0.343831-1.441838 0.51984-2.159176 0.164752-0.725524 0.342808-1.441838 0.506537-2.165316 0.163729-0.718361 0.327458-1.434675 0.490164-2.158153 0.150426-0.717338 0.287549-1.441838 0.438998-2.158153 0.149403-0.725524 0.299829-1.441838 0.435928-2.159176 0.149403-0.723477 0.287549-1.441838 0.424672-2.165316 0.137123-0.717338 0.24457-1.441838 0.36839-2.158153 0.1361-0.717338 0.258896-1.434675 0.36839-2.158153 0.12382-0.724501 0.245593-1.441838 0.36839-2.165316 0.109494-0.717338 0.192382-1.441838 0.300852-2.158153 0.095167-0.717338 0.204661-1.435699 0.299829-2.159176 0.096191-0.716314 0.205685-1.441838 0.287549-2.158153 0.081864-0.724501 0.150426-1.440815 0.233314-2.165316 0.080841-0.716314 0.162706-1.433652 0.245593-2.158153 0.067538-0.717338 0.149403-1.434675 0.217964-2.159176 0.068562-0.716314 0.109494-1.440815 0.163729-2.158153 0.067538-0.723477 0.122797-1.440815 0.178055-2.165316 0.041956-0.716314 0.109494-1.433652 0.149403-2.158153 0.041956-0.717338 0.067538-1.440815 0.10847-2.159176 0.027629-0.716314 0.068562-1.440815 0.096191-2.158153 0.027629-0.723477 0.082888-1.440815 0.096191-2.165316 0.026606-0.716314 0.026606-1.440815 0.040932-2.158153 0.014326-0.716314 0.027629-1.440815 0.027629-2.159176l0.013303-0.627287 0-1.529843 0-2.165316 0-0.36225c-0.013303-0.593518-0.013303-1.195222-0.026606-1.795902-0.027629-0.724501-0.040932-1.441838-0.067538-2.158153-0.028653-0.724501-0.055259-1.441838-0.096191-2.165316-0.027629-0.718361-0.068562-1.434675-0.109494-2.159176-0.039909-0.717338-0.095167-1.440815-0.137123-2.158153-0.053212-0.724501-0.095167-1.440815-0.163729-2.158153-0.054235-0.724501-0.121773-1.440815-0.191358-2.165316-0.081864-0.718361-0.137123-1.434675-0.218988-2.159176-0.080841-0.716314-0.163729-1.440815-0.245593-2.158153-0.080841-0.724501-0.176009-1.440815-0.274246-2.165316-0.095167-0.716314-0.177032-1.440815-0.285502-2.158153-0.097214-0.716314-0.217964-1.434675-0.328481-2.159176-0.10847-0.716314-0.217964-1.440815-0.340761-2.158153-0.109494-0.723477-0.245593-1.440815-0.369414-2.165316-0.121773-0.716314-0.258896-1.440815-0.396019-2.158153-0.137123-0.716314-0.274246-1.440815-0.423649-2.158153-0.149403-0.723477-0.299829-1.441838-0.450255-2.158153-0.149403-0.724501-0.313132-1.441838-0.478907-2.166339-0.149403-0.716314-0.327458-1.440815-0.505513-2.157129-0.162706-0.717338-0.340761-1.441838-0.518816-2.158153-0.178055-0.724501-0.369414-1.440815-0.546446-2.159176-0.190335-0.724501-0.396019-1.440815-0.587378-2.158153-0.191358-0.724501-0.396019-1.447978-0.600681-2.165316-0.204661-0.724501-0.424672-1.440815-0.642636-2.158153-0.204661-0.724501-0.422625-1.440815-0.655939-2.159176-0.218988-0.723477-0.450255-1.440815-0.683569-2.165316-0.232291-0.717338-0.464581-1.433652-0.710175-2.158153-0.24457-0.724501-0.477884-1.440815-0.738827-2.158153-0.24457-0.724501-0.503467-1.440815-0.76441-2.158153-0.258896-0.724501-0.518816-1.441838-0.792039-2.166339-0.258896-0.717338-0.533143-1.440815-0.805342-2.157129-0.274246-0.717338-0.560772-1.441838-0.847298-2.158153-0.286526-0.725524-0.574075-1.441838-0.874927-2.158153-0.285502-0.724501-0.586354-1.449002-0.887206-2.165316-0.314155-0.718361-0.615007-1.441838-0.928139-2.159176-0.315178-0.725524-0.62831-1.441838-0.942465-2.158153-0.327458-0.724501-0.656963-1.441838-0.984421-2.165316-0.340761-0.717338-0.670266-1.441838-1.011027-2.158153-0.340761-0.718361-0.682545-1.441838-1.02433-2.159176-0.356111-0.724501-0.711198-1.441838-1.065262-2.158153-0.357134-0.724501-0.724501-1.441838-1.092891-2.165316-0.36839-0.716314-0.738827-1.441838-1.107217-2.158153-0.382717-0.724501-0.765433-1.441838-1.147126-2.159176-0.382717-0.716314-0.779759-1.441838-1.174756-2.158153-0.38374-0.723477-0.792039-1.449002-1.189082-2.165316-0.409322-0.716314-0.819668-1.441838-1.228991-2.158153s-0.833995-1.441838-1.257643-2.158153c-0.423649-0.723477-0.847298-1.441838-1.284249-2.159176-0.437975-0.723477-0.873903-1.449002-1.311879-2.165316s-0.887206-1.441838-1.338485-2.158153c-0.451278-0.723477-0.903579-1.440815-1.366114-2.158153-0.464581-0.723477-0.929162-1.439792-1.393743-2.159176-0.478907-0.723477-0.942465-1.445932-1.421372-2.165316-0.478907-0.716314-0.970094-1.439792-1.462305-2.158153-0.49221-0.723477-0.983397-1.439792-1.489934-2.158153-0.491187-0.723477-0.9967-1.439792-1.502213-2.165316-0.51984-0.716314-1.025353-1.433652-1.544169-2.159176-0.51984-0.722454-1.051959-1.439792-1.585101-2.158153-0.51984-0.723477-1.051959-1.439792-1.599428-2.157129-0.533143-0.724501-1.079588-1.440815-1.62501-2.158153-0.561795-0.724501-1.108241-1.447978-1.667989-2.167363-0.560772-0.722454-1.12052-1.439792-1.694595-2.156106-0.573051-0.725524-1.147126-1.441838-1.722224-2.158153-0.586354-0.725524-1.173732-1.441838-1.762133-2.165316-0.587378-0.718361-1.188058-1.441838-1.789763-2.158153-0.601704-0.725524-1.203408-1.441838-1.804089-2.159176-0.615007-0.725524-1.242294-1.441838-1.857301-2.158153-0.62831-0.725524-1.257643-1.449002-1.885953-2.165316-0.62831-0.718361-1.269923-1.441838-1.913583-2.158153-0.641613-0.725524-1.283226-1.441838-1.940189-2.159176-0.654916-0.725524-1.324158-1.441838-1.980097-2.165316-0.670266-0.717338-1.340531-1.441838-2.00875-2.158153-0.684592-0.717338-1.367137-1.441838-2.050706-2.158153-0.682545-0.724501-1.38044-1.441838-2.076288-2.159176-0.697895-0.723477-1.407046-1.447978-2.117221-2.164293-0.709151-0.718361-1.421372-1.442862-2.145873-2.159176-0.723477-0.724501-1.447978-1.441838-2.171456-2.158153-0.73985-0.724501-1.475608-1.441838-2.227738-2.165316-0.737804-0.716314-1.488911-1.435699-2.254344-2.158153-0.751107-0.717338-1.515516-1.442862-2.281973-2.159176-0.777713-0.723477-1.544169-1.441838-2.322905-2.158153-0.778736-0.723477-1.570775-1.441838-2.363837-2.158153-0.791016-0.723477-1.599428-1.449002-2.40477-2.165316-0.806365-0.723477-1.611707-1.440815-2.431376-2.159176-0.821715-0.722454-1.64036-1.440815-2.473331-2.158153-0.833995-0.723477-1.666966-1.440815-2.499937-2.158153-0.847298-0.723477-1.707898-1.447978-2.555196-2.165316-0.860601-0.723477-1.722224-1.440815-2.596128-2.159176-0.873903-0.722454-1.74883-1.440815-2.63706-2.158153-0.88823-0.723477-1.775436-1.447978-2.664689-2.165316-0.901533-0.716314-1.803066-1.440815-2.718925-2.158153-0.901533-0.723477-1.829671-1.440815-2.745531-2.157129-0.929162-0.724501-1.87265-1.441838-2.801812-2.159176-0.942465-0.724501-1.898233-1.447978-2.840698-2.165316l-0.997724-0.744967 0.423649-1.414209 0.655939-2.158153 0.655939-2.159176 0.642636-2.165316 0.655939-2.158153 0.641613-2.158153 0.656963-2.165316 0.655939-2.159176 0.642636-2.158153 0.654916-2.158153 0.642636-2.165316 0.656963-2.158153 0.655939-2.158153 0.642636-2.158153 0.655939-2.165316 0.641613-2.158153 0.656963-2.159176 0.655939-2.158153 0.642636-2.165316 0.655939-2.158153 0.64366-2.159176 0.653893-2.158153 0.642636-2.165316 0.656963-2.158153 0.654916-2.159176 0.64366-2.158153 0.655939-2.165316 0.642636-2.158153 0.654916-2.157129 0.655939-2.159176 0.64366-2.165316 0.655939-2.158153 0.642636-2.158153 0.654916-2.159176 0.656963-2.165316 0.642636-2.158153 0.654916-2.158153 0.64366-2.165316 0.655939-2.159176 0.656963-2.158153 0.64059-2.165316 0.464581-1.537006-2.814092 1.537006-3.934612 2.165316-3.948939 2.158153-3.948939 2.159176-3.947915 2.165316-3.934612 2.158153-3.947915 2.158153-3.947915 2.165316-3.935636 2.159176-3.947915 2.158153-3.948939 2.158153-3.935636 2.165316-3.947915 2.159176-3.947915 2.157129-3.947915 2.158153-3.935636 2.165316-3.947915 2.158153-3.948939 2.159176-3.933589 2.158153-3.949962 2.165316-3.947915 2.158153-3.934612 2.159176-3.947915 2.158153-3.948939 2.165316-3.934612 2.158153-0.62831 0.341784-1.351787-0.341784c-2.883677-0.724501-5.767354-1.441838-8.648984-2.158153-2.922563-0.730641-5.848195-1.449002-8.785084-2.165316-3.006474-0.730641-6.025227-1.455141-9.046027-2.158153-3.169179-0.744967-6.339382-1.462305-9.495258-2.159176-3.414773-0.750083-6.817266-1.475608-10.234085-2.158153-3.811816-0.772596-7.622608-1.496074-11.42112-2.165316-4.618181-0.805342-9.236362-1.530866-13.854543-2.158153-7.445576-1.011027-14.906501-1.755993-22.338774-2.159176-4.044106-0.217964-8.088212-0.333598-12.132318-0.333598-5.273097 0-10.519588 0.10847-15.740496 0.333598-9.070586 0.382717-18.034748 1.121544-26.860764 2.159176-5.219885 0.607844-10.370185 1.332345-15.493879 2.158153-4.043083 0.663102-8.074909 1.373277-12.06478 2.165316-3.374864 0.662079-6.721075 1.39272-10.055007 2.158153-2.978844 0.683569-5.956665 1.400906-8.894577 2.159176-2.692319 0.688685-5.355985 1.407046-8.006348 2.158153-2.459005 0.695848-4.90573 1.414209-7.323802 2.165316-2.267647 0.696872-4.50664 1.414209-6.748704 2.158153-2.118244 0.696872-4.208858 1.422396-6.29845 2.159176-1.995447 0.704035-3.963265 1.428535-5.930059 2.158153-1.871627 0.710175-3.743254 1.427512-5.602601 2.165316-1.775436 0.704035-3.565199 1.420349-5.328355 2.158153-1.706875 0.710175-3.415796 1.420349-5.095042 2.158153-1.612731 0.704035-3.212158 1.433652-4.797259 2.158153-1.556449 0.710175-3.100618 1.433652-4.630461 2.165316-1.489934 0.710175-2.993171 1.428535-4.467755 2.158153-1.435699 0.711198-2.869351 1.428535-4.288676 2.158153-1.36816 0.710175-2.734274 1.434675-4.101411 2.159176-1.338485 0.717338-2.676969 1.433652-4.002151 2.165316-1.298576 0.710175-2.569522 1.433652-3.852748 2.158153-1.243317 0.710175-2.474354 1.433652-3.716648 2.158153-1.215688 0.718361-2.433422 1.428535-3.634784 2.165316-1.174756 0.704035-2.322905 1.434675-3.471055 2.159176-1.14815 0.717338-2.295276 1.427512-3.416819 2.158153-1.105171 0.710175-2.199085 1.433652-3.291976 2.158153-1.079588 0.717338-2.158153 1.434675-3.211135 2.165316-1.051959 0.710175-2.104941 1.428535-3.14155 2.159176-1.011027 0.709151-2.0241 1.433652-3.018753 2.157129-1.004887 0.717338-2.00261 1.434675-2.987031 2.158153-0.962931 0.717338-1.912559 1.441838-2.869351 2.165316-0.942465 0.717338-1.898233 1.435699-2.840698 2.158153-0.916882 0.711198-1.811252 1.435699-2.711761 2.159176-0.908696 0.724501-1.817392 1.434675-2.711761 2.165316-0.868787 0.710175-1.722224 1.434675-2.582825 2.158153-0.860601 0.717338-1.734504 1.428535-2.581802 2.158153-0.832971 0.710175-1.638313 1.441838-2.459005 2.159176-0.819668 0.716314-1.65264 1.433652-2.459005 2.165316-0.792039 0.709151-1.571798 1.434675-2.363837 2.158153-0.778736 0.716314-1.564635 1.434675-2.337231 2.158153-0.765433 0.710175-1.509377 1.441838-2.254344 2.159176-0.75213 0.722454-1.502213 1.441838-2.240017 2.158153-0.724501 0.716314-1.449002 1.440815-2.165316 2.165316-0.710175 0.716314-1.427512 1.433652-2.124384 2.158153-0.696872 0.716314-1.39272 1.434675-2.083451 2.159176-0.682545 0.716314-1.359974 1.440815-2.029216 2.164293-0.668219 0.717338-1.344624 1.434675-2.007727 2.159176-0.648776 0.709151-1.283226 1.440815-1.926886 2.158153-0.641613 0.723477-1.297552 1.433652-1.924839 2.158153-0.62217 0.717338-1.230014 1.439792-1.845021 2.165316-0.615007 0.717338-1.228991 1.433652-1.830695 2.159176-0.601704 0.716314-1.188058 1.439792-1.783623 2.158153-0.588401 0.716314-1.167592 1.439792-1.74269 2.165316-0.573051 0.716314-1.161453 1.432629-1.721201 2.158153-0.559748 0.717338-1.106194 1.439792-1.65264 2.159176-0.553609 0.722454-1.11438 1.432629-1.654686 2.158153-0.539282 0.716314-1.066285 1.439792-1.591241 2.165316-0.525979 0.716314-1.045819 1.432629-1.564635 2.158153-0.518816 0.716314-1.037632 1.433652-1.544169 2.156106-0.505513 0.719384-0.983397 1.442862-1.488911 2.167363-0.491187 0.717338-0.997724 1.433652-1.475608 2.158153-0.477884 0.710175-0.949628 1.433652-1.420349 2.157129-0.464581 0.718361-0.943488 1.435699-1.400906 2.158153-0.457418 0.725524-0.929162 1.442862-1.38044 2.159176-0.451278 0.718361-0.88209 1.441838-1.326205 2.165316-0.443092 0.718361-0.887206 1.434675-1.318018 2.158153-0.436952 0.718361-0.847298 1.441838-1.269923 2.158153-0.423649 0.719384-0.833995 1.441838-1.243317 2.165316-0.416486 0.719384-0.840134 1.435699-1.243317 2.159176-0.396019 0.709151-0.778736 1.441838-1.174756 2.158153-0.38988 0.716314-0.778736 1.434675-1.161453 2.158153-0.382717 0.716314-0.765433 1.441838-1.14815 2.165316-0.36839 0.717338-0.724501 1.435699-1.092891 2.159176-0.36225 0.716314-0.737804 1.434675-1.093914 2.158153-0.354064 0.716314-0.696872 1.441838-1.037632 2.158153-0.340761 0.716314-0.682545 1.441838-1.023306 2.165316-0.342808 0.716314-0.683569 1.435699-1.01819 2.158153-0.321318 0.717338-0.636496 1.442862-0.949628 2.159176-0.327458 0.716314-0.641613 1.441838-0.956791 2.158153-0.314155 0.723477-0.621147 1.440815-0.929162 2.165316-0.300852 0.716314-0.587378 1.433652-0.88209 2.158153-0.292666 0.723477-0.593518 1.434675-0.881067 2.159176-0.287549 0.716314-0.566912 1.440815-0.847298 2.158153-0.273223 0.716314-0.539282 1.440815-0.806365 2.165316-0.273223 0.716314-0.554632 1.432629-0.820692 2.158153-0.258896 0.717338-0.505513 1.440815-0.75827 2.159176-0.252757 0.716314-0.49835 1.440815-0.744967 2.165316-0.246617 0.716314-0.505513 1.432629-0.744967 2.158153-0.23843 0.716314-0.451278 1.440815-0.676405 2.158153-0.232291 0.716314-0.458441 1.439792-0.683569 2.157129-0.217964 0.724501-0.464581 1.441838-0.669242 2.166339-0.217964 0.710175-0.410346 1.441838-0.615007 2.158153-0.205685 0.717338-0.410346 1.433652-0.607844 2.158153-0.198521 0.724501-0.409322 1.440815-0.600681 2.158153-0.184195 0.718361-0.36225 1.447978-0.540306 2.165316-0.190335 0.718361-0.369414 1.434675-0.546446 2.159176-0.177032 0.717338-0.36225 1.433652-0.533143 2.158153-0.163729 0.717338-0.314155 1.440815-0.477884 2.165316-0.163729 0.717338-0.320295 1.433652-0.477884 2.158153-0.150426 0.718361-0.314155 1.434675-0.464581 2.159176-0.137123 0.716314-0.274246 1.440815-0.410346 2.158153-0.1361 0.723477-0.279363 1.440815-0.409322 2.157129-0.1361 0.724501-0.272199 1.441838-0.396019 2.166339-0.12382 0.716314-0.232291 1.440815-0.348947 2.158153-0.115634 0.717338-0.23843 1.441838-0.347924 2.158153-0.10847 0.724501-0.225127 1.441838-0.327458 2.158153-0.110517 0.724501-0.192382 1.441838-0.287549 2.165316-0.095167 0.717338-0.198521 1.435699-0.287549 2.158153-0.096191 0.724501-0.184195 1.442862-0.26606 2.159176-0.081864 0.717338-0.143263 1.441838-0.225127 2.158153-0.068562 0.724501-0.150426 1.440815-0.218988 2.165316-0.068562 0.717338-0.137123 1.441838-0.204661 2.158153-0.061398 0.718361-0.102331 1.440815-0.157589 2.159176-0.053212 0.724501-0.10847 1.440815-0.157589 2.165316-0.047072 0.717338-0.102331 1.433652-0.143263 2.158153-0.040932 0.717338-0.061398 1.440815-0.095167 2.158153l-0.095167 2.159176c-0.020466 0.723477-0.061398 1.440815-0.088004 2.165316-0.013303 0.716314-0.013303 1.440815-0.027629 2.158153l-0.033769 2.158153c-0.007163 0.697895-0.033769 1.393743-0.033769 2.091638l0.00614 0.073678c0 0.716314 0.020466 1.434675 0.033769 2.157129 0 0.718361 0.013303 1.442862 0.026606 2.159176 0.014326 0.717338 0.014326 1.441838 0.034792 2.158153 0.020466 0.724501 0.062422 1.441838 0.089028 2.165316 0.026606 0.717338 0.062422 1.441838 0.095167 2.158153 0.035816 0.718361 0.055259 1.441838 0.096191 2.159176 0.040932 0.724501 0.102331 1.441838 0.150426 2.158153 0.047072 0.724501 0.102331 1.441838 0.149403 2.165316 0.062422 0.717338 0.103354 1.441838 0.164752 2.158153 0.067538 0.724501 0.1361 1.441838 0.204661 2.159176 0.075725 0.724501 0.150426 1.441838 0.232291 2.158153 0.068562 0.724501 0.137123 1.440815 0.218988 2.165316 0.081864 0.716314 0.177032 1.441838 0.274246 2.158153 0.081864 0.723477 0.191358 1.441838 0.286526 2.159176 0.096191 0.716314 0.178055 1.440815 0.286526 2.158153 0.095167 0.723477 0.218988 1.440815 0.327458 2.165316 0.109494 0.723477 0.232291 1.440815 0.356111 2.158153 0.10847 0.716314 0.217964 1.440815 0.340761 2.158153 0.12996 0.723477 0.273223 1.441838 0.410346 2.165316 0.122797 0.717338 0.273223 1.433652 0.410346 2.159176 0.1361 0.716314 0.265036 1.440815 0.409322 2.158153 0.149403 0.723477 0.314155 1.439792 0.470721 2.158153 0.157589 0.723477 0.320295 1.439792 0.477884 2.165316 0.164752 0.717338 0.308015 1.439792 0.48607 2.159176 0.163729 0.722454 0.354064 1.439792 0.533143 2.158153 0.177032 0.723477 0.354064 1.439792 0.546446 2.157129 0.177032 0.724501 0.347924 1.447978 0.539282 2.166339 0.197498 0.723477 0.409322 1.433652 0.608867 2.159176 0.196475 0.716314 0.403183 1.439792 0.615007 2.157129 0.204661 0.724501 0.396019 1.440815 0.615007 2.166339 0.211824 0.716314 0.450255 1.432629 0.669242 2.157129 0.232291 0.717338 0.451278 1.440815 0.683569 2.157129 0.232291 0.719384 0.450255 1.442862 0.689708 2.159176 0.23843 0.725524 0.497327 1.441838 0.744967 2.165316 0.245593 0.718361 0.491187 1.441838 0.743944 2.158153 0.252757 0.718361 0.511653 1.441838 0.771573 2.158153 0.25992 0.725524 0.539282 1.441838 0.807389 2.159176 0.272199 0.725524 0.540306 1.441838 0.819668 2.165316 0.273223 0.718361 0.560772 1.441838 0.847298 2.158153 0.287549 0.725524 0.588401 1.441838 0.88823 2.158153 0.294712 0.725524 0.574075 1.449002 0.873903 2.159176 0.314155 0.725524 0.62831 1.441838 0.942465 2.165316 0.314155 0.717338 0.62831 1.441838 0.957815 2.158153 0.314155 0.716314 0.62831 1.441838 0.955768 2.158153 0.327458 0.723477 0.682545 1.441838 1.01819 2.159176 0.341784 0.722454 0.676405 1.447978 1.02433 2.164293 0.348947 0.717338 0.689708 1.442862 1.045819 2.159176 0.356111 0.723477 0.737804 1.441838 1.099031 2.158153 0.36225 0.723477 0.717338 1.449002 1.100054 2.158153 0.369414 0.723477 0.759293 1.442862 1.14815 2.165316 0.382717 0.717338 0.771573 1.441838 1.161453 2.159176 0.396019 0.716314 0.778736 1.440815 1.175779 2.158153 0.409322 0.723477 0.831948 1.440815 1.243317 2.162246 0.416486 0.719384 0.825808 1.440815 1.243317 2.162246 0.422625 0.720408 0.847298 1.440815 1.283226 2.157129 0.437975 0.724501 0.88209 1.441838 1.326205 2.162246 0.436952 0.717338 0.873903 1.444908 1.325182 2.158153 0.450255 0.724501 0.921999 1.441838 1.38044 2.162246 0.464581 0.721431 0.935302 1.441838 1.407046 2.159176 0.477884 0.724501 0.942465 1.444908 1.427512 2.158153 0.48607 0.727571 0.99056 1.444908 1.481747 2.162246 0.49221 0.721431 0.984421 1.444908 1.483794 2.162246 0.511653 0.724501 1.031493 1.441838 1.550309 2.159176 0.518816 0.724501 1.038656 1.444908 1.570775 2.162246 0.533143 0.721431 1.059122 1.441838 1.599428 2.159176 0.539282 0.727571 1.092891 1.441838 1.653663 2.162246 0.546446 0.720408 1.091868 1.444908 1.653663 2.162246 0.566912 0.724501 1.154289 1.438769 1.734504 2.159176 0.573051 0.720408 1.14815 1.444908 1.734504 2.162246 0.594541 0.724501 1.196245 1.441838 1.790786 2.158153 0.615007 0.724501 1.221828 1.441838 1.836835 2.159176 0.621147 0.724501 1.222851 1.449002 1.851161 2.162246 0.636496 0.727571 1.285273 1.441838 1.926886 2.162246 0.642636 0.721431 1.278109 1.449002 1.925862 2.159176 0.670266 0.727571 1.352811 1.441838 2.022053 2.162246 0.670266 0.721431 1.339508 1.444908 2.023076 2.162246 0.696872 0.724501 1.393743 1.441838 2.089591 2.159176 0.710175 0.724501 1.420349 1.444908 2.131547 2.162246 0.724501 0.721431 1.449002 1.440815 2.178619 2.159176 0.738827 0.724501 1.483794 1.440815 2.234901 2.162246C486.873228 340.612976 487.624335 341.333384 488.389768 342.051745L488.389768 342.051745z" transform="translate(0, 812) scale(1, -1)"/>
</svg>
