<?xml version="1.0" encoding="utf-8"?>
<!DOCTYPE svg PUBLIC "-//W3C//DTD SVG 1.1//EN" "http://www.w3.org/Graphics/SVG/1.1/DTD/svg11.dtd">
<svg version="1.1" id="图形" xmlns="http://www.w3.org/2000/svg" xmlns:xlink="http://www.w3.org/1999/xlink" x="0px" y="0px" width="1024px" height="1024px" viewBox="0 0 1024 1024" enable-background="new 0 0 1024 1024" xml:space="preserve">
  <path fill="#272636" d="M512.654 9.053c-201.45 4.991-348.589 98.444-444.555 274.275-4.267 7.814-5.251 23.323-0.407 29.334 90.544 112.513 191.797 212.154 332.405 260.655 114.122 39.363 220.564 14.592 320.984-44.34 93.915-55.118 169.609-130.932 234.977-217.222 4.687-6.193 5.6-20.363 1.767-27.144C859.949 111.671 715.104 13.962 512.654 9.053zM509.308 476.785c-53.92 0.574-106.184-14.33-153.431-46.917-95.9-66.147-97.267-192.139-0.559-256.646 96.962-64.678 198.926-66.442 299.413-9.684 112.775 63.697 114.121 202.067 5.367 271.65C614.842 464.147 565.532 476.909 509.308 476.785zM624.795 299.243c-1.229-62.599-53.464-114.516-114.782-114.089-60.364 0.419-112.821 56.029-111.023 117.691 1.838 62.649 52.736 114.314 112.186 113.872C574.598 416.245 626.049 363.047 624.795 299.243z" transform="translate(0, 812) scale(1, -1)"/>
</svg>
