<?xml version="1.0" encoding="utf-8"?>
<!DOCTYPE svg PUBLIC "-//W3C//DTD SVG 1.1//EN" "http://www.w3.org/Graphics/SVG/1.1/DTD/svg11.dtd">
<svg version="1.1" id="图形" xmlns="http://www.w3.org/2000/svg" xmlns:xlink="http://www.w3.org/1999/xlink" x="0px" y="0px" width="1024px" height="1024px" viewBox="0 0 1024 1024" enable-background="new 0 0 1024 1024" xml:space="preserve">
  <path fill="#272636" d="M851.419 87.247q0-22.857-16.018-38.839l-77.714-77.714q-16.018-16.018-38.839-16.018t-38.839 16.018l-168.009 168.009-168.009-168.009q-16.018-16.018-38.839-16.018t-38.839 16.018l-77.714 77.714q-16.018 16.018-16.018 38.839t16.018 38.839l168.009 168.009-168.009 168.009q-16.018 16.018-16.018 38.839t16.018 38.839l77.714 77.714q16.018 16.018 38.839 16.018t38.839-16.018l168.009-168.009 168.009 168.009q16.018 16.018 38.839 16.018t38.839-16.018l77.714-77.714q16.018-16.018 16.018-38.839t-16.018-38.839l-168.009-168.009 168.009-168.009q16.018-16.018 16.018-38.839z" transform="translate(0, 812) scale(1, -1)"/>
</svg>
