<?xml version="1.0" encoding="utf-8"?>
<!DOCTYPE svg PUBLIC "-//W3C//DTD SVG 1.1//EN" "http://www.w3.org/Graphics/SVG/1.1/DTD/svg11.dtd">
<svg version="1.1" id="图形" xmlns="http://www.w3.org/2000/svg" xmlns:xlink="http://www.w3.org/1999/xlink" x="0px" y="0px" width="1024px" height="1024px" viewBox="0 0 1024 1024" enable-background="new 0 0 1024 1024" xml:space="preserve">
  <path fill="#272636" d="M64.091714 667.570563 64.091714 748.979688l895.486044 0 0-81.409125L64.091714 667.570563 64.091714 667.570563zM878.17068-146.509427 878.17068 667.570563l81.407078 0 0-814.07999L878.17068-146.509427 878.17068-146.509427zM64.091714-146.509427 64.091714 219.826006l81.408101 0 0-366.335433L64.091714-146.509427 64.091714-146.509427zM64.091714-146.509427l0 81.408101 814.07999 0 0-81.408101L64.091714-146.509427 64.091714-146.509427zM64.091714 464.051333l0 81.407078 447.742511 0 0-81.407078L64.091714 464.051333 64.091714 464.051333zM64.091714 504.754361 64.091714 748.979688l81.408101 0 0-244.225327L64.091714 504.754361 64.091714 504.754361zM267.611967 57.010827 267.611967 504.754361l81.408101 0 0-447.743534L267.611967 57.010827 267.611967 57.010827zM471.131197 57.010827l0 81.408101 284.927331 0 0-81.408101L471.131197 57.010827 471.131197 57.010827zM471.131197 260.607828l0 81.332377 284.927331 0 0-81.332377L471.131197 260.607828 471.131197 260.607828zM633.9474 464.051333l0 81.407078 122.112152 0 0-81.407078L633.9474 464.051333 633.9474 464.051333z" transform="translate(0, 812) scale(1, -1)"/>
</svg>
