<?xml version="1.0" encoding="utf-8"?>
<!-- Generated by IcoMoon.io -->
<!DOCTYPE svg PUBLIC "-//W3C//DTD SVG 1.1//EN" "http://www.w3.org/Graphics/SVG/1.1/DTD/svg11.dtd">
<svg version="1.1" xmlns="http://www.w3.org/2000/svg" xmlns:xlink="http://www.w3.org/1999/xlink" width="32" height="32" viewBox="0 0 32 32">
<path fill="#444444" d="M26.665 8.138q0.427 0.427 0.731 1.158t0.305 1.341v17.552q0 0.609-0.427 1.036t-1.036 0.427h-20.477q-0.609 0-1.036-0.427t-0.427-1.036v-24.378q0-0.609 0.427-1.036t1.036-0.427h13.651q0.609 0 1.341 0.305t1.158 0.731zM19.9 4.421v5.729h5.729q-0.152-0.442-0.335-0.625l-4.769-4.769q-0.183-0.183-0.625-0.335zM25.751 27.701v-15.602h-6.338q-0.609 0-1.036-0.427t-0.427-1.036v-6.338h-11.701v23.402h19.502zM23.801 20.875v4.875h-15.602v-2.925l2.925-2.925 1.95 1.95 5.851-5.851zM11.124 17.95q-1.219 0-2.072-0.853t-0.853-2.072 0.853-2.072 2.072-0.853 2.072 0.853 0.853 2.072-0.853 2.072-2.072 0.853z"></path>
</svg>
