<?xml version="1.0" encoding="utf-8"?><!DOCTYPE svg PUBLIC "-//W3C//DTD SVG 1.1//EN" "http://www.w3.org/Graphics/SVG/1.1/DTD/svg11.dtd"><svg version="1.1" baseProfile="full" xmlns="http://www.w3.org/2000/svg" xmlns:xlink="http://www.w3.org/1999/xlink" xmlns:ev="http://www.w3.org/2001/xml-events"   height="70px"   width="68px" ><path fill="rgb( 0, 0, 0 )" d="M0.293,26.467 C0.293,26.467 0.293,25.456 0.293,25.456 C0.293,25.456 55.309,25.456 55.309,25.456 C55.309,25.456 62.844,25.503 65.414,22.815 C65.414,22.815 67.135,23.626 67.135,23.626 C67.135,23.626 67.135,26.467 67.135,26.467 C67.135,26.467 0.293,26.467 0.293,26.467 ZM36.809,17.514 C36.809,17.514 46.501,17.514 46.501,17.514 C46.501,17.514 54.036,17.561 56.606,14.873 C56.606,14.873 58.326,15.683 58.326,15.683 C58.326,15.683 58.326,18.525 58.326,18.525 C58.326,18.525 36.809,18.525 36.809,18.525 C36.809,18.525 36.809,25.414 36.809,25.414 C36.809,25.414 31.077,25.414 31.077,25.414 C31.077,25.414 31.077,18.525 31.077,18.525 C31.077,18.525 9.232,18.525 9.232,18.525 C9.232,18.525 9.232,17.514 9.232,17.514 C9.232,17.514 31.077,17.514 31.077,17.514 C31.077,17.514 31.077,10.624 31.077,10.624 C31.077,10.624 4.568,10.624 4.568,10.624 C4.568,10.624 4.568,9.613 4.568,9.613 C4.568,9.613 31.077,9.613 31.077,9.613 C31.077,9.613 31.077,0.074 31.077,0.074 C31.077,0.074 36.809,1.045 36.809,1.045 C36.809,1.045 36.809,9.613 36.809,9.613 C36.809,9.613 51.034,9.613 51.034,9.613 C51.034,9.613 58.57,9.66 61.14,6.971 C61.14,6.971 62.86,7.782 62.86,7.782 C62.86,7.782 62.86,10.624 62.86,10.624 C62.86,10.624 36.809,10.624 36.809,10.624 C36.809,10.624 36.809,17.514 36.809,17.514 ZM22.007,46.42 C22.007,46.42 25.295,49.621 25.295,49.621 C18.263,58.382 7.406,61.718 7.406,61.718 C7.406,61.718 3.625,57.41 3.625,57.41 C17.161,53.739 22.007,46.42 22.007,46.42 ZM31.079,59.11 C31.079,59.11 31.077,59.11 31.077,59.11 C31.077,59.11 31.077,46.788 31.077,46.788 C31.077,46.788 36.809,47.76 36.809,47.76 C36.809,47.76 36.809,59.11 36.809,59.11 C36.809,59.11 36.807,59.11 36.807,59.11 C36.782,68.388 30.719,69.926 30.719,69.926 C30.719,69.926 28.064,63.32 28.064,63.32 C31.079,62.777 31.091,59.551 31.079,59.11 ZM52.529,36.746 C52.529,36.746 52.529,45.441 52.529,45.441 C52.529,45.441 49.688,45.441 49.688,45.441 C49.688,45.441 46.797,45.441 46.797,45.441 C46.797,45.441 18.957,45.441 18.957,45.441 C16.054,46.49 14.214,47.009 14.214,47.009 C14.214,47.009 11.493,42.532 11.493,42.532 C17.089,41.201 22.388,39.013 26.849,36.785 C26.849,36.785 18.681,36.785 18.681,36.785 C16.552,37.585 14.99,38.046 14.99,38.046 C14.99,38.046 12.27,33.569 12.27,33.569 C20.254,31.405 26.096,27.122 26.096,27.122 C26.096,27.122 28.874,31.211 28.874,31.211 C26.988,33.021 23.953,34.593 21.198,35.774 C21.198,35.774 28.81,35.774 28.81,35.774 C35.314,32.329 39.604,29.083 39.604,29.083 C39.604,29.083 42.53,33.02 42.53,33.02 C35.593,38.386 27.418,42.164 21.639,44.43 C21.639,44.43 46.797,44.43 46.797,44.43 C46.797,44.43 46.797,35.774 46.797,35.774 C46.797,35.774 52.529,36.746 52.529,36.746 ZM63.909,57.458 C63.909,57.458 60.303,61.747 60.303,61.747 C52.529,54.501 42.069,49.628 42.069,49.628 C42.069,49.628 44.336,46.39 44.336,46.39 C55.181,50.754 63.909,57.458 63.909,57.458 Z "/></svg>