<?xml version="1.0" encoding="utf-8"?><!DOCTYPE svg PUBLIC "-//W3C//DTD SVG 1.1//EN" "http://www.w3.org/Graphics/SVG/1.1/DTD/svg11.dtd"><svg version="1.1" baseProfile="full" xmlns="http://www.w3.org/2000/svg" xmlns:xlink="http://www.w3.org/1999/xlink" xmlns:ev="http://www.w3.org/2001/xml-events"   height="70px"   width="166px" ><path fill="rgb( 0, 0, 0 )" d="M165.705,52.261 C165.68,61.538 159.616,63.077 159.616,63.077 C159.616,63.077 156.962,56.471 156.962,56.471 C159.976,55.928 159.989,52.703 159.976,52.261 C159.976,52.261 159.974,52.261 159.974,52.261 C159.974,52.261 159.974,40.012 159.974,40.012 C159.974,40.012 150.247,40.012 150.247,40.012 C150.247,40.012 150.247,69.975 150.247,69.975 C150.247,69.975 144.515,69.975 144.515,69.975 C144.515,69.975 144.515,40.012 144.515,40.012 C144.515,40.012 134.796,40.012 134.796,40.012 C134.796,40.012 134.796,63.077 134.796,63.077 C134.796,63.077 129.063,63.077 129.063,63.077 C129.063,63.077 129.063,37.441 129.063,37.441 C129.063,37.441 134.796,38.162 134.796,38.162 C134.796,38.162 134.796,39.002 134.796,39.002 C134.796,39.002 144.515,39.002 144.515,39.002 C144.515,39.002 144.515,33.608 144.515,33.608 C144.515,33.608 150.247,34.328 150.247,34.328 C150.247,34.328 150.247,39.002 150.247,39.002 C150.247,39.002 153.882,39.002 153.882,39.002 C153.882,39.002 161.417,39.048 163.987,36.361 C163.987,36.361 165.707,37.171 165.707,37.171 C165.707,37.171 165.707,38.412 165.707,38.412 C165.707,38.412 165.707,40.012 165.707,40.012 C165.707,40.012 165.707,52.261 165.707,52.261 C165.707,52.261 165.705,52.261 165.705,52.261 ZM158.104,32.912 C158.104,32.912 136.641,32.912 136.641,32.912 C136.641,32.912 136.641,33.956 136.641,33.956 C136.641,33.956 130.909,33.956 130.909,33.956 C130.909,33.956 130.909,8.32 130.909,8.32 C130.909,8.32 136.641,9.04 136.641,9.04 C136.641,9.04 136.641,9.856 136.641,9.856 C136.641,9.856 144.515,9.856 144.515,9.856 C144.515,9.856 144.515,0.025 144.515,0.025 C144.515,0.025 150.247,0.746 150.247,0.746 C150.247,0.746 150.247,9.856 150.247,9.856 C150.247,9.856 152.011,9.856 152.011,9.856 C152.011,9.856 159.547,9.903 162.117,7.214 C162.117,7.214 163.837,8.025 163.837,8.025 C163.837,8.025 163.837,9.38 163.837,9.38 C163.837,9.38 163.837,10.867 163.837,10.867 C163.837,10.867 163.837,32.912 163.837,32.912 C163.837,32.912 161.896,32.912 161.896,32.912 C161.896,32.912 158.104,32.912 158.104,32.912 ZM158.104,10.867 C158.104,10.867 136.641,10.867 136.641,10.867 C136.641,10.867 136.641,20.89 136.641,20.89 C136.641,20.89 158.104,20.89 158.104,20.89 C158.104,20.89 158.104,10.867 158.104,10.867 ZM158.104,21.901 C158.104,21.901 136.641,21.901 136.641,21.901 C136.641,21.901 136.641,31.902 136.641,31.902 C136.641,31.902 158.104,31.902 158.104,31.902 C158.104,31.902 158.104,21.901 158.104,21.901 ZM128.302,16.104 C128.302,16.104 124.65,20.038 124.65,20.038 C124.65,20.038 116.273,15.797 113.997,7.59 C110.136,15.368 103.407,20.249 103.407,20.249 C103.407,20.249 98.941,16.671 98.941,16.671 C109.426,10.323 111.954,0.802 111.954,0.802 C111.954,0.802 116.037,2.033 116.037,2.033 C115.834,2.891 115.572,3.717 115.286,4.528 C115.286,4.528 115.345,4.441 115.345,4.441 C115.345,4.441 118.393,11.765 128.302,16.104 ZM82.938,38.886 C80.791,38.886 79.051,37.146 79.051,35 C79.051,32.854 80.791,31.114 82.938,31.114 C85.084,31.114 86.824,32.854 86.824,35 C86.824,37.146 85.084,38.886 82.938,38.886 ZM0.293,25.456 C0.293,25.456 55.309,25.456 55.309,25.456 C55.309,25.456 62.844,25.503 65.414,22.815 C65.414,22.815 67.135,23.626 67.135,23.626 C67.135,23.626 67.135,26.467 67.135,26.467 C67.135,26.467 0.293,26.467 0.293,26.467 C0.293,26.467 0.293,25.456 0.293,25.456 ZM36.809,17.514 C36.809,17.514 46.501,17.514 46.501,17.514 C46.501,17.514 54.036,17.561 56.606,14.873 C56.606,14.873 58.326,15.683 58.326,15.683 C58.326,15.683 58.326,18.525 58.326,18.525 C58.326,18.525 36.809,18.525 36.809,18.525 C36.809,18.525 36.809,25.414 36.809,25.414 C36.809,25.414 31.077,25.414 31.077,25.414 C31.077,25.414 31.077,18.525 31.077,18.525 C31.077,18.525 9.232,18.525 9.232,18.525 C9.232,18.525 9.232,17.514 9.232,17.514 C9.232,17.514 31.077,17.514 31.077,17.514 C31.077,17.514 31.077,10.624 31.077,10.624 C31.077,10.624 4.568,10.624 4.568,10.624 C4.568,10.624 4.568,9.613 4.568,9.613 C4.568,9.613 31.077,9.613 31.077,9.613 C31.077,9.613 31.077,0.074 31.077,0.074 C31.077,0.074 36.809,1.045 36.809,1.045 C36.809,1.045 36.809,9.613 36.809,9.613 C36.809,9.613 51.034,9.613 51.034,9.613 C51.034,9.613 58.57,9.66 61.14,6.971 C61.14,6.971 62.86,7.782 62.86,7.782 C62.86,7.782 62.86,10.624 62.86,10.624 C62.86,10.624 36.809,10.624 36.809,10.624 C36.809,10.624 36.809,17.514 36.809,17.514 ZM22.007,46.42 C22.007,46.42 25.295,49.621 25.295,49.621 C18.263,58.382 7.406,61.718 7.406,61.718 C7.406,61.718 3.625,57.41 3.625,57.41 C17.161,53.739 22.007,46.42 22.007,46.42 ZM31.079,59.11 C31.079,59.11 31.077,59.11 31.077,59.11 C31.077,59.11 31.077,46.788 31.077,46.788 C31.077,46.788 36.809,47.76 36.809,47.76 C36.809,47.76 36.809,59.11 36.809,59.11 C36.809,59.11 36.807,59.11 36.807,59.11 C36.782,68.388 30.719,69.926 30.719,69.926 C30.719,69.926 28.064,63.32 28.064,63.32 C31.079,62.777 31.091,59.551 31.079,59.11 ZM52.529,36.746 C52.529,36.746 52.529,45.441 52.529,45.441 C52.529,45.441 49.688,45.441 49.688,45.441 C49.688,45.441 46.797,45.441 46.797,45.441 C46.797,45.441 18.948,45.441 18.948,45.441 C16.063,46.483 14.214,47.009 14.214,47.009 C14.214,47.009 11.493,42.532 11.493,42.532 C17.09,41.201 22.391,39.013 26.852,36.785 C26.852,36.785 18.681,36.785 18.681,36.785 C16.552,37.585 14.99,38.046 14.99,38.046 C14.99,38.046 12.27,33.569 12.27,33.569 C20.254,31.405 26.096,27.122 26.096,27.122 C26.096,27.122 28.874,31.211 28.874,31.211 C26.988,33.021 23.953,34.593 21.198,35.774 C21.198,35.774 28.817,35.774 28.817,35.774 C35.321,32.329 39.604,29.083 39.604,29.083 C39.604,29.083 42.53,33.02 42.53,33.02 C35.591,38.388 27.417,42.164 21.637,44.43 C21.637,44.43 46.797,44.43 46.797,44.43 C46.797,44.43 46.797,35.774 46.797,35.774 C46.797,35.774 52.529,36.746 52.529,36.746 ZM63.909,57.458 C63.909,57.458 60.303,61.747 60.303,61.747 C52.529,54.501 42.069,49.628 42.069,49.628 C42.069,49.628 44.336,46.39 44.336,46.39 C55.181,50.754 63.909,57.458 63.909,57.458 ZM105.744,59.698 C105.744,59.698 103.472,54.38 103.472,41.151 C103.472,41.151 107.351,41.157 107.351,41.157 C107.351,41.157 107.228,51.791 110.243,59.082 C110.243,59.082 105.744,59.698 105.744,59.698 ZM110.903,25.35 C110.903,25.35 101.918,25.35 101.918,25.35 C101.918,25.35 101.918,24.339 101.918,24.339 C101.918,24.339 113.509,24.339 113.509,24.339 C113.509,24.339 121.044,24.386 123.614,21.698 C123.614,21.698 125.334,22.508 125.334,22.508 C125.334,22.508 125.334,25.35 125.334,25.35 C125.334,25.35 116.635,25.35 116.635,25.35 C116.635,25.35 116.635,31.877 116.635,31.877 C118.74,31.79 123.772,31.362 125.781,29.26 C125.781,29.26 127.502,30.069 127.502,30.069 C127.502,30.069 127.502,32.911 127.502,32.911 C127.502,32.911 116.635,32.911 116.635,32.911 C116.635,32.911 116.635,56.102 116.635,56.102 C118.994,49.2 120.181,41.157 120.181,41.157 C120.181,41.157 123.96,42.047 123.96,42.047 C122.698,53.351 118.629,59.483 118.629,59.483 C118.629,59.483 116.635,58.985 116.635,58.985 C116.635,58.985 116.635,66.318 116.635,66.318 C118.74,66.231 123.772,65.803 125.781,63.701 C125.781,63.701 127.502,64.51 127.502,64.51 C127.502,64.51 127.502,67.352 127.502,67.352 C127.502,67.352 99.716,67.352 99.716,67.352 C99.716,67.352 99.716,66.342 99.716,66.342 C99.716,66.342 110.903,66.342 110.903,66.342 C110.903,66.342 110.903,32.911 110.903,32.911 C110.903,32.911 99.716,32.911 99.716,32.911 C99.716,32.911 99.716,31.901 99.716,31.901 C99.716,31.901 110.903,31.901 110.903,31.901 C110.903,31.901 110.903,25.35 110.903,25.35 Z "/></svg>