<?xml version="1.0" encoding="utf-8"?>
<!-- Generated by IcoMoon.io -->
<!DOCTYPE svg PUBLIC "-//W3C//DTD SVG 1.1//EN" "http://www.w3.org/Graphics/SVG/1.1/DTD/svg11.dtd">
<svg version="1.1" xmlns="http://www.w3.org/2000/svg" xmlns:xlink="http://www.w3.org/1999/xlink" width="76" height="32" viewBox="0 0 76 32">
<path fill="#444444" d="M75.751 23.891c-0.011 4.241-2.784 4.944-2.784 4.944s-1.213-3.020-1.213-3.020c1.378-0.248 1.384-1.723 1.378-1.925 0 0-0.001 0-0.001 0s0-5.6 0-5.6c0 0-4.447 0-4.447 0s0 13.697 0 13.697c0 0-2.62 0-2.62 0s0-13.697 0-13.697c0 0-4.443 0-4.443 0s0 10.544 0 10.544c0 0-2.621 0-2.621 0s0-11.719 0-11.719c0 0 2.621 0.33 2.621 0.33s0 0.384 0 0.384c0 0 4.443 0 4.443 0s0-2.466 0-2.466c0 0 2.62 0.329 2.62 0.329s0 2.137 0 2.137c0 0 1.662 0 1.662 0s3.445 0.021 4.619-1.207c0 0 0.786 0.37 0.786 0.37s0 0.567 0 0.567c0 0 0 0.731 0 0.731s0 5.6 0 5.6c0 0-0.001 0-0.001 0zM72.276 15.046c0 0-9.812 0-9.812 0s0 0.477 0 0.477c0 0-2.62 0-2.62 0s0-11.719 0-11.719c0 0 2.62 0.329 2.62 0.329s0 0.373 0 0.373c0 0 3.6 0 3.6 0s0-4.494 0-4.494c0 0 2.62 0.33 2.62 0.33s0 4.165 0 4.165c0 0 0.806 0 0.806 0s3.445 0.021 4.62-1.208c0 0 0.786 0.371 0.786 0.371s0 0.619 0 0.619c0 0 0 0.68 0 0.68s0 10.078 0 10.078c0 0-0.887 0-0.887 0s-1.734 0-1.734 0zM72.276 4.968c0 0-9.812 0-9.812 0s0 4.582 0 4.582c0 0 9.812 0 9.812 0s0-4.582 0-4.582zM72.276 10.012c0 0-9.812 0-9.812 0s0 4.572 0 4.572c0 0 9.812 0 9.812 0s0-4.572 0-4.572zM58.652 7.362c0 0-1.669 1.798-1.669 1.798s-3.83-1.939-4.87-5.691c-1.765 3.556-4.841 5.787-4.841 5.787s-2.042-1.636-2.042-1.636c4.793-2.902 5.949-7.254 5.949-7.254s1.867 0.563 1.867 0.563c-0.093 0.392-0.213 0.77-0.343 1.141 0 0 0.027-0.040 0.027-0.040s1.393 3.348 5.923 5.332zM37.914 17.776c-0.981 0-1.777-0.795-1.777-1.776s0.795-1.776 1.777-1.776c0.981 0 1.776 0.795 1.776 1.776s-0.795 1.776-1.776 1.776zM0.134 11.637c0 0 25.15 0 25.15 0s3.445 0.021 4.619-1.207c0 0 0.787 0.371 0.787 0.371s0 1.299 0 1.299c0 0-30.556 0-30.556 0s0-0.462 0-0.462zM16.827 8.006c0 0 4.431 0 4.431 0s3.445 0.021 4.619-1.207c0 0 0.786 0.37 0.786 0.37s0 1.299 0 1.299c0 0-9.836 0-9.836 0s0 3.149 0 3.149c0 0-2.62 0-2.62 0s0-3.149 0-3.149c0 0-9.986 0-9.986 0s0-0.462 0-0.462c0 0 9.986 0 9.986 0s0-3.15 0-3.15c0 0-12.118 0-12.118 0s0-0.462 0-0.462c0 0 12.118 0 12.118 0s0-4.361 0-4.361c0 0 2.62 0.444 2.62 0.444s0 3.917 0 3.917c0 0 6.503 0 6.503 0s3.445 0.021 4.62-1.208c0 0 0.786 0.371 0.786 0.371s0 1.299 0 1.299c0 0-11.909 0-11.909 0s0 3.15 0 3.15zM10.060 21.221c0 0 1.503 1.463 1.503 1.463-3.215 4.005-8.178 5.53-8.178 5.53s-1.728-1.969-1.728-1.969c6.188-1.678 8.403-5.024 8.403-5.024zM14.208 27.022c0 0-0.001 0-0.001 0s0-5.633 0-5.633c0 0 2.62 0.444 2.62 0.444s0 5.189 0 5.189c0 0-0.001 0-0.001 0-0.011 4.241-2.783 4.944-2.783 4.944s-1.214-3.020-1.214-3.020c1.378-0.248 1.384-1.723 1.378-1.925zM24.013 16.798c0 0 0 3.975 0 3.975s-1.299 0-1.299 0c0 0-1.322 0-1.322 0s-12.731 0-12.731 0c-1.319 0.476-2.164 0.717-2.164 0.717s-1.244-2.047-1.244-2.047c2.559-0.608 4.982-1.609 7.021-2.627 0 0-3.735 0-3.735 0-0.973 0.366-1.687 0.576-1.687 0.576s-1.243-2.047-1.243-2.047c3.65-0.989 6.32-2.947 6.32-2.947s1.27 1.869 1.27 1.869c-0.862 0.827-2.25 1.546-3.509 2.086 0 0 3.483 0 3.483 0 2.973-1.575 4.931-3.059 4.931-3.059s1.338 1.8 1.338 1.8c-3.172 2.454-6.909 4.18-9.551 5.216 0 0 11.502 0 11.502 0s0-3.957 0-3.957c0 0 2.62 0.444 2.62 0.444zM29.216 26.267c0 0-1.648 1.961-1.648 1.961-3.554-3.312-8.336-5.54-8.336-5.54s1.036-1.48 1.036-1.48c4.958 1.995 8.948 5.060 8.948 5.060zM48.34 27.291c0 0-1.039-2.431-1.039-8.479 0 0 1.773 0.003 1.773 0.003s-0.056 4.861 1.322 8.194c0 0-2.057 0.282-2.057 0.282zM50.699 11.589c0 0-4.107 0-4.107 0s0-0.462 0-0.462c0 0 5.299 0 5.299 0s3.445 0.021 4.619-1.207c0 0 0.786 0.37 0.786 0.37s0 1.299 0 1.299c0 0-3.977 0-3.977 0s0 2.984 0 2.984c0.962-0.040 3.263-0.235 4.181-1.196 0 0 0.787 0.37 0.787 0.37s0 1.299 0 1.299c0 0-4.968 0-4.968 0s0 10.602 0 10.602c1.078-3.155 1.621-6.832 1.621-6.832s1.728 0.407 1.728 0.407c-0.577 5.168-2.437 7.971-2.437 7.971s-0.912-0.228-0.912-0.228c0 0 0 3.352 0 3.352 0.962-0.040 3.263-0.235 4.181-1.196 0 0 0.787 0.37 0.787 0.37s0 1.299 0 1.299c0 0-12.702 0-12.702 0s0-0.462 0-0.462c0 0 5.114 0 5.114 0s0-15.283 0-15.283c0 0-5.114 0-5.114 0s0-0.462 0-0.462c0 0 5.114 0 5.114 0s0-2.995 0-2.995z"></path>
</svg>
