<?xml version="1.0" encoding="utf-8"?>
<!-- Generated by IcoMoon.io -->
<!DOCTYPE svg PUBLIC "-//W3C//DTD SVG 1.1//EN" "http://www.w3.org/Graphics/SVG/1.1/DTD/svg11.dtd">
<svg version="1.1" xmlns="http://www.w3.org/2000/svg" xmlns:xlink="http://www.w3.org/1999/xlink" width="32" height="32" viewBox="0 0 32 32">
<path fill="#444444" d="M0.988 6.23c0-1.047 0.849-1.896 1.896-1.896s1.896 0.849 1.896 1.896c0 1.047-0.849 1.896-1.896 1.896s-1.896-0.849-1.896-1.896zM0.748 15.626c0-1.048 0.85-1.898 1.898-1.898s1.898 0.85 1.898 1.898c0 1.048-0.85 1.898-1.898 1.898s-1.898-0.85-1.898-1.898zM0.748 25.070c0-1.048 0.85-1.898 1.898-1.898s1.898 0.85 1.898 1.898c0 1.048-0.85 1.898-1.898 1.898s-1.898-0.85-1.898-1.898zM31.106 6.142c0 1-0.742 1.808-1.66 1.808h-19.68c-0.918 0-1.662-0.81-1.662-1.808v0c0-0.998 0.742-1.808 1.662-1.808h19.678c0.92 0 1.662 0.81 1.662 1.808v0zM31.106 15.54c0 0.998-0.742 1.808-1.66 1.808h-19.68c-0.918 0-1.662-0.81-1.662-1.808v0c0-1 0.742-1.808 1.662-1.808h19.678c0.92-0.002 1.662 0.808 1.662 1.808v0zM31.106 24.978c0 1-0.742 1.81-1.66 1.81h-19.68c-0.918 0-1.662-0.81-1.662-1.81v0c0-0.996 0.742-1.806 1.662-1.806h19.678c0.92 0 1.662 0.81 1.662 1.806v0z"></path>
</svg>
