<?xml version="1.0" encoding="utf-8"?>
<!-- Generated by IcoMoon.io -->
<!DOCTYPE svg PUBLIC "-//W3C//DTD SVG 1.1//EN" "http://www.w3.org/Graphics/SVG/1.1/DTD/svg11.dtd">
<svg version="1.1" xmlns="http://www.w3.org/2000/svg" xmlns:xlink="http://www.w3.org/1999/xlink" width="32" height="32" viewBox="0 0 32 32">
<path fill="#444444" d="M27.764 16.854c0.006-0.012 0.012-0.024 0.018-0.037 0.010-0.020 0.019-0.040 0.028-0.061 0.003-0.007 0.006-0.014 0.009-0.020 0.011-0.026 0.021-0.052 0.031-0.078 0-0.001 0-0.001 0.001-0.002 0.082-0.219 0.125-0.447 0.13-0.672 0-0.016 0-0.032 0-0.047s0-0.032-0-0.047c-0.005-0.226-0.048-0.454-0.13-0.673-0-0-0-0.001-0-0.001-0.010-0.026-0.020-0.052-0.031-0.078-0.003-0.007-0.006-0.013-0.008-0.020-0.009-0.021-0.018-0.041-0.028-0.061-0.006-0.012-0.011-0.024-0.017-0.036-0.008-0.016-0.016-0.032-0.025-0.048s-0.017-0.031-0.026-0.047c-0.003-0.006-0.007-0.012-0.010-0.019s-0.009-0.014-0.013-0.021c-0.010-0.017-0.020-0.034-0.031-0.050-0.008-0.013-0.016-0.025-0.024-0.038-0.010-0.015-0.021-0.031-0.031-0.046-0.010-0.014-0.019-0.027-0.029-0.041s-0.019-0.025-0.029-0.037c-0.012-0.016-0.024-0.031-0.037-0.047-0.008-0.009-0.015-0.018-0.023-0.027-0.015-0.018-0.031-0.036-0.047-0.054-0.005-0.005-0.010-0.011-0.015-0.016-0.019-0.021-0.039-0.041-0.059-0.061-0.002-0.002-0.004-0.004-0.006-0.006-0.137-0.134-0.291-0.247-0.455-0.336l-18.431-10.641c-0.002-0.001-0.003-0.002-0.005-0.003-0.028-0.016-0.057-0.032-0.086-0.047-0.002-0.001-0.003-0.002-0.005-0.003-0.029-0.015-0.059-0.029-0.089-0.043-0.002-0.001-0.004-0.002-0.006-0.003-0.029-0.013-0.058-0.025-0.087-0.037-0.004-0.001-0.007-0.003-0.011-0.004-0.027-0.010-0.054-0.020-0.082-0.030-0.006-0.002-0.012-0.004-0.018-0.006-0.025-0.008-0.050-0.016-0.075-0.023-0.009-0.003-0.018-0.005-0.027-0.008-0.022-0.006-0.044-0.011-0.066-0.017-0.012-0.003-0.025-0.006-0.037-0.009-0.019-0.004-0.038-0.008-0.057-0.011-0.016-0.003-0.031-0.006-0.047-0.008s-0.033-0.005-0.049-0.007c-0.018-0.003-0.037-0.005-0.055-0.007-0.015-0.002-0.029-0.003-0.044-0.004-0.020-0.002-0.040-0.003-0.060-0.005-0.014-0.001-0.028-0.002-0.042-0.002-0.020-0.001-0.040-0.001-0.060-0.002-0.008-0-0.017-0.001-0.025-0.001-0.007 0-0.014 0-0.022 0.001-0.017 0-0.034 0.001-0.050 0.001-0.019 0.001-0.039 0.002-0.058 0.003-0.011 0.001-0.022 0.002-0.033 0.003-0.025 0.002-0.050 0.004-0.075 0.007-0.003 0-0.007 0.001-0.010 0.001-0.335 0.040-0.646 0.161-0.912 0.342-0.004 0.003-0.009 0.006-0.013 0.009-0.022 0.015-0.044 0.031-0.066 0.047-0.012 0.009-0.024 0.019-0.035 0.028-0.014 0.011-0.028 0.022-0.041 0.033s-0.028 0.024-0.042 0.037c-0.011 0.010-0.022 0.019-0.033 0.029-0.013 0.012-0.026 0.025-0.040 0.038-0.011 0.011-0.022 0.021-0.033 0.032s-0.021 0.022-0.032 0.034c-0.013 0.014-0.026 0.028-0.039 0.042-0.008 0.008-0.015 0.017-0.022 0.026-0.016 0.018-0.031 0.036-0.046 0.055-0.004 0.005-0.008 0.011-0.013 0.016-0.018 0.023-0.036 0.046-0.053 0.070-0.001 0.002-0.002 0.003-0.003 0.005-0.244 0.339-0.389 0.754-0.389 1.204v4.997c0 0.005 0 0.010 0 0.015v16.323c0 0.008 0.001 0.017 0.001 0.025 0 0.019 0.001 0.039 0.001 0.058 0.001 0.015 0.001 0.030 0.002 0.045 0.001 0.018 0.003 0.037 0.004 0.055 0.001 0.017 0.003 0.033 0.005 0.050s0.004 0.032 0.006 0.048c0.003 0.019 0.005 0.038 0.009 0.057 0.002 0.012 0.004 0.025 0.007 0.037 0.004 0.023 0.009 0.045 0.014 0.068 0.002 0.008 0.004 0.016 0.006 0.024 0.006 0.027 0.013 0.053 0.020 0.079 0.001 0.004 0.002 0.008 0.003 0.012 0.009 0.030 0.018 0.061 0.028 0.090 0 0 0 0 0 0.001 0.067 0.201 0.163 0.387 0.284 0.555 0.001 0.001 0.002 0.002 0.002 0.003 0.018 0.024 0.036 0.048 0.054 0.072 0.004 0.005 0.007 0.010 0.011 0.014 0.016 0.019 0.032 0.038 0.048 0.057 0.007 0.008 0.014 0.016 0.021 0.024 0.013 0.015 0.027 0.029 0.041 0.044 0.010 0.010 0.020 0.021 0.030 0.031 0.012 0.012 0.024 0.023 0.036 0.035s0.024 0.024 0.037 0.035c0.012 0.011 0.024 0.021 0.036 0.032s0.026 0.023 0.039 0.034c0.015 0.012 0.030 0.024 0.046 0.036 0.010 0.008 0.020 0.016 0.031 0.024 0.023 0.018 0.047 0.034 0.071 0.051 0.002 0.002 0.005 0.003 0.007 0.005 0.266 0.182 0.578 0.303 0.914 0.343 0.002 0 0.005 0.001 0.007 0.001 0.026 0.003 0.052 0.005 0.078 0.007 0.010 0.001 0.020 0.002 0.030 0.002 0.020 0.001 0.040 0.002 0.060 0.003 0.016 0.001 0.032 0.001 0.048 0.001 0.008 0 0.015 0.001 0.023 0.001 0.009 0 0.017-0.001 0.026-0.001 0.019-0 0.038-0.001 0.058-0.001 0.015-0.001 0.030-0.001 0.044-0.002 0.019-0.001 0.038-0.003 0.058-0.004 0.015-0.001 0.031-0.003 0.046-0.005 0.018-0.002 0.035-0.004 0.053-0.007s0.034-0.005 0.051-0.008c0.015-0.003 0.030-0.005 0.045-0.008 0.019-0.004 0.039-0.007 0.058-0.012 0.012-0.003 0.024-0.005 0.036-0.008 0.022-0.005 0.045-0.011 0.067-0.017 0.009-0.002 0.017-0.005 0.026-0.007 0.025-0.007 0.051-0.015 0.075-0.023 0.006-0.002 0.011-0.004 0.017-0.006 0.028-0.009 0.055-0.019 0.083-0.030 0.003-0.001 0.007-0.003 0.010-0.004 0.030-0.012 0.059-0.024 0.088-0.037 0.002-0.001 0.004-0.002 0.005-0.003 0.030-0.014 0.060-0.028 0.089-0.043 0.002-0.001 0.003-0.002 0.005-0.002 0.029-0.015 0.058-0.031 0.086-0.047 0.002-0.001 0.003-0.002 0.005-0.003l18.431-10.641c0.164-0.089 0.317-0.202 0.454-0.335 0.003-0.002 0.005-0.005 0.008-0.007 0.020-0.019 0.039-0.039 0.058-0.060 0.005-0.006 0.011-0.012 0.016-0.017 0.016-0.017 0.031-0.035 0.046-0.053 0.008-0.009 0.016-0.019 0.024-0.028 0.012-0.015 0.024-0.030 0.036-0.046 0.010-0.013 0.020-0.026 0.029-0.038s0.019-0.026 0.029-0.040c0.011-0.015 0.022-0.031 0.032-0.047 0.008-0.012 0.016-0.025 0.024-0.037 0.011-0.017 0.021-0.034 0.031-0.051 0.004-0.007 0.009-0.013 0.012-0.020s0.007-0.012 0.010-0.018c0.009-0.016 0.018-0.032 0.026-0.048s0.016-0.031 0.024-0.047z"></path>
</svg>
