<?xml version="1.0" encoding="utf-8"?>
<!-- Generated by IcoMoon.io -->
<!DOCTYPE svg PUBLIC "-//W3C//DTD SVG 1.1//EN" "http://www.w3.org/Graphics/SVG/1.1/DTD/svg11.dtd">
<svg version="1.1" xmlns="http://www.w3.org/2000/svg" xmlns:xlink="http://www.w3.org/1999/xlink" width="32" height="32" viewBox="0 0 32 32">
<path fill="#444444" d="M9.876 3.751c0.478-0.055 0.966-0.084 1.461-0.086h0.114c0.495 0.002 0.985 0.031 1.466 0.086 0.195 0.022 0.388 0.049 0.58 0.079 0.151 0.024 0.302 0.050 0.452 0.080 0.127 0.025 0.253 0.051 0.379 0.079 0.112 0.025 0.223 0.052 0.334 0.080 0.1 0.025 0.2 0.052 0.299 0.080 0.092 0.026 0.184 0.052 0.275 0.080 0.085 0.026 0.17 0.052 0.254 0.079 0.079 0.026 0.159 0.052 0.238 0.080 0.075 0.026 0.149 0.052 0.223 0.079 0.071 0.026 0.141 0.053 0.211 0.080 0.067 0.026 0.134 0.053 0.201 0.080 0.064 0.026 0.128 0.053 0.191 0.080 0.062 0.026 0.123 0.052 0.183 0.079 0.059 0.026 0.118 0.053 0.176 0.080 0.056 0.026 0.112 0.053 0.168 0.079 0.054 0.026 0.108 0.053 0.161 0.080s0.105 0.053 0.157 0.080c0.051 0.026 0.102 0.053 0.152 0.080 0.049 0.026 0.097 0.053 0.146 0.079 0.047 0.026 0.094 0.053 0.141 0.080s0.092 0.053 0.138 0.079c0.044 0.026 0.089 0.053 0.133 0.080s0.086 0.053 0.129 0.080c0.042 0.026 0.085 0.053 0.126 0.079s0.082 0.053 0.122 0.080c0.040 0.026 0.079 0.053 0.119 0.079s0.078 0.053 0.117 0.080c0.038 0.026 0.075 0.053 0.112 0.079s0.074 0.053 0.11 0.080c0.036 0.026 0.072 0.053 0.107 0.080s0.070 0.053 0.105 0.079c0.035 0.026 0.069 0.053 0.103 0.080s0.066 0.053 0.099 0.080c0.033 0.026 0.066 0.053 0.099 0.079s0.063 0.053 0.094 0.080c0.031 0.026 0.063 0.053 0.094 0.080s0.061 0.053 0.090 0.079c0.030 0.026 0.060 0.053 0.089 0.080s0.058 0.053 0.087 0.079c0.029 0.026 0.057 0.053 0.085 0.080s0.056 0.053 0.083 0.080c0.027 0.026 0.055 0.053 0.082 0.080s0.053 0.053 0.079 0.079c0.026 0.026 0.053 0.053 0.078 0.079s0.051 0.053 0.076 0.080c0.025 0.026 0.050 0.053 0.075 0.080s0.049 0.053 0.073 0.080c0.024 0.026 0.048 0.053 0.071 0.079s0.047 0.053 0.070 0.080c0.023 0.026 0.046 0.053 0.069 0.079s0.044 0.053 0.067 0.080c0.022 0.026 0.044 0.053 0.066 0.080s0.042 0.053 0.064 0.079c0.021 0.026 0.043 0.053 0.064 0.080s0.040 0.053 0.061 0.079c0.020 0.026 0.041 0.053 0.061 0.079s0.039 0.053 0.058 0.080c0.019 0.026 0.039 0.053 0.058 0.079s0.038 0.053 0.056 0.080c0.019 0.026 0.037 0.053 0.055 0.079s0.036 0.053 0.054 0.079c0.017 0.026 0.035 0.053 0.052 0.080s0.035 0.053 0.052 0.079c0.017 0.026 0.033 0.053 0.050 0.079s0.033 0.053 0.049 0.080c0.016 0.026 0.032 0.053 0.047 0.079s0.032 0.053 0.047 0.080c0.015 0.026 0.030 0.053 0.046 0.079s0.030 0.053 0.044 0.080c0.015 0.027 0.030 0.053 0.044 0.079s0.028 0.053 0.042 0.080c0.014 0.026 0.028 0.053 0.042 0.079s0.026 0.053 0.040 0.080c0.013 0.026 0.026 0.053 0.039 0.079s0.026 0.053 0.039 0.080c0.012 0.026 0.024 0.053 0.037 0.080s0.025 0.053 0.037 0.079c0.012 0.026 0.023 0.053 0.035 0.079s0.023 0.053 0.034 0.080c0.012 0.026 0.023 0.053 0.034 0.079s0.021 0.053 0.032 0.080c0.011 0.026 0.022 0.053 0.032 0.080s0.020 0.053 0.030 0.079c0.010 0.026 0.020 0.053 0.030 0.079s0.019 0.053 0.029 0.080c0.009 0.026 0.018 0.053 0.027 0.079s0.018 0.053 0.027 0.080c0.009 0.026 0.017 0.053 0.026 0.079s0.017 0.053 0.025 0.080c0.009 0.026 0.017 0.053 0.025 0.080s0.015 0.053 0.023 0.079c0.008 0.026 0.015 0.053 0.023 0.079s0.014 0.053 0.021 0.080c0.007 0.026 0.014 0.053 0.021 0.079s0.014 0.053 0.020 0.080c0.006 0.026 0.012 0.053 0.018 0.079s0.012 0.053 0.018 0.080c0.004 0.017 0.008 0.034 0.012 0.052v0.001c-0.202-0.023-0.405-0.041-0.609-0.052-0.155-0.009-0.311-0.014-0.468-0.014-0.178 0-0.354 0.005-0.529 0.014-0.292 0.015-0.579 0.041-0.863 0.079-0.168 0.023-0.335 0.049-0.5 0.080-0.13 0.024-0.258 0.051-0.386 0.079-0.11 0.025-0.22 0.051-0.328 0.079-0.096 0.025-0.191 0.052-0.286 0.080-0.086 0.025-0.172 0.052-0.257 0.080-0.079 0.026-0.158 0.052-0.236 0.079-0.073 0.026-0.146 0.052-0.218 0.080-0.068 0.026-0.136 0.052-0.204 0.080-0.064 0.026-0.128 0.052-0.191 0.079-0.061 0.026-0.121 0.052-0.181 0.079-0.058 0.026-0.115 0.052-0.172 0.080-0.054 0.026-0.108 0.053-0.162 0.079-0.052 0.026-0.104 0.053-0.155 0.080-0.050 0.026-0.099 0.053-0.149 0.079-0.048 0.026-0.097 0.052-0.144 0.080-0.046 0.026-0.091 0.053-0.137 0.079s-0.088 0.053-0.132 0.080c-0.043 0.026-0.086 0.053-0.129 0.079-0.041 0.026-0.082 0.053-0.123 0.080s-0.080 0.053-0.119 0.080c-0.039 0.026-0.078 0.053-0.117 0.079s-0.074 0.053-0.111 0.079c-0.037 0.026-0.073 0.053-0.109 0.079s-0.071 0.053-0.106 0.080c-0.034 0.026-0.068 0.053-0.102 0.079s-0.067 0.053-0.101 0.080c-0.032 0.026-0.064 0.053-0.096 0.080s-0.063 0.053-0.095 0.079c-0.031 0.026-0.061 0.053-0.091 0.079s-0.060 0.053-0.090 0.079c-0.029 0.026-0.058 0.053-0.087 0.080s-0.057 0.053-0.085 0.079c-0.028 0.026-0.055 0.053-0.083 0.079s-0.054 0.053-0.080 0.080c-0.026 0.026-0.053 0.053-0.079 0.079s-0.051 0.053-0.076 0.080c-0.025 0.026-0.051 0.053-0.076 0.080s-0.049 0.053-0.073 0.079c-0.024 0.026-0.048 0.053-0.072 0.079s-0.046 0.053-0.069 0.080c-0.023 0.026-0.046 0.053-0.068 0.079s-0.044 0.053-0.067 0.079c-0.022 0.026-0.044 0.053-0.065 0.080s-0.043 0.053-0.064 0.079c-0.021 0.026-0.041 0.053-0.062 0.079s-0.041 0.053-0.061 0.080c-0.020 0.026-0.039 0.053-0.059 0.079s-0.039 0.053-0.059 0.080c-0.019 0.026-0.037 0.053-0.056 0.079s-0.037 0.053-0.056 0.079c-0.018 0.026-0.036 0.053-0.053 0.080s-0.035 0.053-0.053 0.080c-0.017 0.026-0.034 0.053-0.051 0.079s-0.034 0.053-0.050 0.079c-0.017 0.026-0.033 0.053-0.050 0.079s-0.032 0.053-0.047 0.080c-0.016 0.026-0.032 0.053-0.047 0.079s-0.030 0.053-0.045 0.080c-0.015 0.026-0.030 0.053-0.044 0.080s-0.029 0.053-0.043 0.079c-0.014 0.026-0.028 0.053-0.042 0.079s-0.028 0.053-0.042 0.079c-0.013 0.026-0.026 0.053-0.039 0.079s-0.027 0.053-0.040 0.080c-0.013 0.026-0.025 0.053-0.038 0.079s-0.025 0.053-0.037 0.079c-0.012 0.026-0.024 0.053-0.036 0.080s-0.023 0.053-0.035 0.079c-0.011 0.026-0.024 0.053-0.035 0.079s-0.022 0.053-0.033 0.079c-0.011 0.026-0.022 0.053-0.032 0.080s-0.022 0.053-0.032 0.079c-0.010 0.026-0.020 0.053-0.030 0.079s-0.020 0.053-0.030 0.080c-0.010 0.026-0.019 0.053-0.029 0.079s-0.018 0.053-0.027 0.079c-0.009 0.027-0.019 0.053-0.027 0.079s-0.017 0.053-0.025 0.080c-0.009 0.026-0.017 0.053-0.025 0.079s-0.016 0.053-0.024 0.079c-0.008 0.026-0.015 0.053-0.023 0.080s-0.016 0.053-0.023 0.079c-0.007 0.026-0.014 0.053-0.021 0.079s-0.014 0.053-0.021 0.080c-0.007 0.026-0.014 0.053-0.020 0.079s-0.012 0.053-0.018 0.080c-0.006 0.026-0.012 0.053-0.018 0.079s-0.012 0.053-0.018 0.079c-0.006 0.026-0.011 0.053-0.016 0.079s-0.011 0.053-0.016 0.080c-0.005 0.026-0.010 0.053-0.015 0.079s-0.009 0.053-0.014 0.080c-0.005 0.026-0.010 0.053-0.014 0.079s-0.008 0.053-0.012 0.079c-0.004 0.026-0.008 0.053-0.012 0.079s-0.008 0.053-0.012 0.080c-0.003 0.026-0.006 0.053-0.010 0.079s-0.007 0.053-0.010 0.079c-0.003 0.026-0.006 0.053-0.009 0.080s-0.005 0.053-0.007 0.079c-0.003 0.026-0.005 0.053-0.007 0.079s-0.005 0.053-0.007 0.080c-0.002 0.026-0.003 0.053-0.005 0.079s-0.004 0.053-0.005 0.079c-0.001 0.026-0.003 0.053-0.004 0.079s-0.002 0.053-0.003 0.080c-0.001 0.026-0.002 0.053-0.003 0.079s-0.001 0.053-0.002 0.079c-0.001 0.026-0.001 0.053-0.001 0.080s-0.001 0.053-0.001 0.079v0.008c0 0.024 0 0.047 0 0.071 0 0.027 0 0.053 0.001 0.080s0.001 0.053 0.002 0.079c0.001 0.026 0.002 0.053 0.003 0.079s0.002 0.053 0.004 0.080c0.001 0.026 0.003 0.053 0.004 0.079s0.003 0.053 0.005 0.079c0.002 0.027 0.004 0.053 0.006 0.079s0.004 0.053 0.007 0.080c0.002 0.026 0.005 0.053 0.007 0.079s0.006 0.053 0.008 0.080c0.003 0.026 0.006 0.053 0.009 0.079s0.006 0.053 0.010 0.079c0.003 0.026 0.007 0.053 0.011 0.079s0.007 0.053 0.011 0.080c0.004 0.026 0.008 0.053 0.012 0.079s0.009 0.053 0.013 0.080c0.004 0.026 0.009 0.053 0.014 0.079s0.010 0.053 0.015 0.079c0.005 0.026 0.010 0.053 0.015 0.079s0.011 0.053 0.016 0.080c0.005 0.026 0.011 0.053 0.017 0.079s0.012 0.053 0.018 0.079c0.006 0.027 0.012 0.053 0.018 0.080s0.013 0.053 0.019 0.079c0.007 0.026 0.013 0.053 0.020 0.079s0.014 0.053 0.021 0.080c0.007 0.026 0.015 0.053 0.022 0.079s0.015 0.053 0.022 0.079l0.013 0.045c-0.188 0.015-0.377 0.027-0.566 0.034-0.158 0.007-0.318 0.010-0.477 0.010-0.155 0-0.306-0.003-0.455-0.010-0.314-0.014-0.616-0.042-0.913-0.079-0.181-0.023-0.361-0.050-0.541-0.079-0.149-0.025-0.298-0.051-0.449-0.079-0.135-0.025-0.271-0.052-0.409-0.080-0.129-0.026-0.259-0.052-0.391-0.079-0.127-0.026-0.257-0.053-0.388-0.079-0.121-0.025-0.244-0.050-0.369-0.074l-3.907 1.959 0.019-0.057 0.026-0.079 0.026-0.080 0.053-0.159 0.026-0.080 0.053-0.159 0.026-0.080 0.026-0.079 0.026-0.079 0.026-0.080 0.053-0.159 0.026-0.080 0.053-0.159 0.026-0.080 0.026-0.079 0.053-0.159 0.026-0.080 0.053-0.159 0.026-0.080 0.053-0.159 0.026-0.080 0.026-0.079 0.053-0.159 0.026-0.080 0.026-0.079 0.026-0.080 0.079-0.238 0.026-0.080 0.026-0.079 0.026-0.080 0.026-0.079 0.026-0.079 0.015-0.046c-0.016-0.011-0.031-0.022-0.047-0.033-0.038-0.026-0.075-0.053-0.112-0.080s-0.073-0.053-0.11-0.079c-0.036-0.026-0.072-0.053-0.108-0.079s-0.070-0.053-0.105-0.080c-0.035-0.026-0.069-0.053-0.104-0.079s-0.068-0.053-0.102-0.079c-0.034-0.026-0.067-0.053-0.1-0.080s-0.066-0.053-0.098-0.079c-0.032-0.026-0.064-0.053-0.096-0.079s-0.063-0.053-0.094-0.080c-0.031-0.026-0.062-0.053-0.093-0.079s-0.061-0.053-0.091-0.079c-0.030-0.026-0.060-0.053-0.090-0.079s-0.058-0.053-0.088-0.080c-0.029-0.026-0.057-0.053-0.086-0.079s-0.056-0.053-0.084-0.079c-0.028-0.026-0.055-0.053-0.083-0.080s-0.054-0.053-0.081-0.079c-0.027-0.026-0.053-0.053-0.079-0.079s-0.052-0.053-0.078-0.080c-0.026-0.026-0.051-0.053-0.076-0.079s-0.051-0.053-0.076-0.079c-0.025-0.026-0.049-0.053-0.073-0.079s-0.048-0.053-0.072-0.080c-0.024-0.026-0.047-0.053-0.071-0.079s-0.046-0.053-0.069-0.080c-0.023-0.026-0.045-0.053-0.068-0.079s-0.044-0.053-0.066-0.079c-0.022-0.026-0.044-0.053-0.065-0.079s-0.042-0.053-0.064-0.080c-0.021-0.026-0.041-0.053-0.062-0.079s-0.041-0.053-0.061-0.080c-0.020-0.026-0.040-0.053-0.060-0.079s-0.039-0.053-0.058-0.079c-0.019-0.026-0.038-0.053-0.058-0.080s-0.038-0.053-0.056-0.079c-0.018-0.026-0.037-0.053-0.055-0.079s-0.036-0.053-0.054-0.080c-0.018-0.026-0.035-0.053-0.053-0.079s-0.034-0.053-0.051-0.079c-0.017-0.026-0.033-0.053-0.050-0.079s-0.033-0.053-0.049-0.080c-0.016-0.026-0.032-0.053-0.048-0.079s-0.031-0.053-0.046-0.079c-0.015-0.026-0.031-0.053-0.046-0.080s-0.029-0.053-0.044-0.079c-0.015-0.026-0.029-0.053-0.043-0.079s-0.028-0.053-0.042-0.079c-0.014-0.026-0.027-0.053-0.041-0.080s-0.027-0.053-0.040-0.079c-0.013-0.026-0.026-0.053-0.039-0.079s-0.025-0.053-0.038-0.080c-0.012-0.026-0.025-0.053-0.037-0.079s-0.024-0.053-0.036-0.079c-0.012-0.026-0.023-0.053-0.035-0.079s-0.023-0.053-0.034-0.079c-0.011-0.026-0.022-0.053-0.033-0.080s-0.021-0.053-0.032-0.080c-0.010-0.026-0.021-0.053-0.031-0.079s-0.020-0.053-0.030-0.080c-0.010-0.026-0.019-0.053-0.029-0.079s-0.019-0.053-0.028-0.079c-0.009-0.026-0.018-0.053-0.027-0.079s-0.017-0.053-0.026-0.080c-0.009-0.026-0.017-0.053-0.025-0.080s-0.016-0.053-0.024-0.079c-0.008-0.026-0.016-0.053-0.023-0.079s-0.015-0.053-0.022-0.080c-0.007-0.026-0.015-0.053-0.022-0.079s-0.014-0.053-0.021-0.080c-0.006-0.026-0.013-0.053-0.019-0.079s-0.013-0.053-0.019-0.079c-0.006-0.027-0.012-0.053-0.018-0.080s-0.012-0.053-0.017-0.079c-0.006-0.026-0.011-0.053-0.016-0.079s-0.010-0.053-0.015-0.080c-0.005-0.026-0.010-0.053-0.015-0.079s-0.009-0.053-0.013-0.079c-0.004-0.026-0.009-0.053-0.013-0.080s-0.008-0.053-0.012-0.080c-0.004-0.026-0.007-0.053-0.011-0.079s-0.007-0.053-0.010-0.080c-0.003-0.026-0.006-0.053-0.009-0.079s-0.006-0.053-0.009-0.079c-0.003-0.026-0.005-0.053-0.007-0.080s-0.005-0.053-0.007-0.079c-0.002-0.026-0.004-0.053-0.006-0.079s-0.004-0.053-0.005-0.079c-0.002-0.026-0.003-0.053-0.005-0.080s-0.002-0.053-0.004-0.080c-0.001-0.026-0.002-0.053-0.003-0.079s-0.001-0.053-0.002-0.080c-0.001-0.026-0.001-0.053-0.002-0.079s-0-0.053-0.001-0.079c0-0.014-0-0.027-0-0.041s0.001-0.026 0.001-0.039c0-0.027 0.001-0.053 0.001-0.080s0.001-0.053 0.001-0.080c0.001-0.026 0.001-0.053 0.002-0.079s0.002-0.053 0.003-0.080c0.001-0.027 0.002-0.053 0.004-0.079s0.003-0.053 0.004-0.080c0.002-0.027 0.004-0.053 0.006-0.079s0.004-0.053 0.006-0.080c0.002-0.026 0.004-0.053 0.006-0.079s0.006-0.053 0.008-0.080c0.003-0.027 0.005-0.053 0.008-0.079s0.006-0.053 0.009-0.079c0.003-0.027 0.007-0.053 0.011-0.080s0.007-0.053 0.011-0.080c0.004-0.026 0.007-0.053 0.011-0.079s0.009-0.053 0.013-0.080c0.004-0.026 0.009-0.053 0.013-0.080s0.009-0.053 0.013-0.079c0.005-0.027 0.011-0.053 0.016-0.079s0.010-0.053 0.016-0.080c0.005-0.026 0.010-0.053 0.016-0.079s0.012-0.053 0.018-0.080c0.006-0.026 0.012-0.053 0.018-0.079s0.012-0.053 0.018-0.080c0.006-0.027 0.013-0.053 0.020-0.079s0.013-0.053 0.020-0.080c0.007-0.026 0.014-0.053 0.021-0.079s0.015-0.053 0.023-0.079c0.007-0.027 0.015-0.053 0.023-0.080s0.016-0.053 0.023-0.080c0.008-0.027 0.017-0.053 0.025-0.079s0.016-0.053 0.025-0.080c0.009-0.027 0.017-0.053 0.026-0.079s0.019-0.053 0.028-0.080 0.018-0.053 0.028-0.079c0.010-0.027 0.019-0.053 0.029-0.079s0.020-0.053 0.030-0.080c0.010-0.026 0.020-0.053 0.030-0.080s0.022-0.053 0.032-0.079c0.011-0.027 0.022-0.053 0.033-0.080s0.022-0.053 0.033-0.079c0.011-0.027 0.024-0.053 0.036-0.079s0.023-0.053 0.035-0.080c0.012-0.026 0.024-0.053 0.036-0.080s0.026-0.053 0.038-0.079c0.012-0.027 0.025-0.053 0.038-0.080s0.026-0.053 0.040-0.079c0.014-0.027 0.027-0.053 0.041-0.080s0.027-0.053 0.041-0.079c0.014-0.027 0.029-0.053 0.044-0.080s0.029-0.053 0.044-0.079c0.015-0.026 0.029-0.053 0.045-0.080s0.031-0.053 0.046-0.079c0.016-0.026 0.031-0.053 0.047-0.080s0.032-0.053 0.048-0.079c0.016-0.027 0.033-0.053 0.050-0.079s0.033-0.053 0.050-0.080c0.017-0.027 0.035-0.053 0.052-0.079s0.035-0.053 0.053-0.079c0.018-0.027 0.036-0.053 0.054-0.080s0.037-0.053 0.056-0.079c0.018-0.026 0.037-0.053 0.056-0.080s0.039-0.053 0.059-0.079c0.019-0.027 0.039-0.053 0.058-0.079s0.040-0.053 0.061-0.080c0.020-0.027 0.041-0.053 0.062-0.079s0.042-0.053 0.063-0.080c0.021-0.027 0.043-0.053 0.065-0.080s0.043-0.053 0.065-0.079c0.022-0.027 0.045-0.053 0.068-0.080s0.046-0.053 0.069-0.079c0.023-0.027 0.047-0.053 0.070-0.080s0.048-0.053 0.072-0.080c0.024-0.026 0.048-0.053 0.073-0.080s0.050-0.053 0.076-0.079c0.025-0.026 0.050-0.053 0.076-0.079s0.053-0.053 0.079-0.080c0.026-0.027 0.053-0.053 0.079-0.080s0.055-0.053 0.083-0.080c0.028-0.026 0.055-0.053 0.083-0.079s0.058-0.053 0.087-0.080c0.029-0.027 0.058-0.053 0.088-0.079s0.060-0.053 0.090-0.080c0.031-0.027 0.061-0.053 0.092-0.080s0.063-0.053 0.095-0.079c0.032-0.027 0.064-0.053 0.096-0.080s0.066-0.053 0.099-0.080c0.034-0.027 0.067-0.053 0.101-0.079s0.070-0.053 0.105-0.080c0.035-0.027 0.070-0.053 0.106-0.080s0.073-0.053 0.11-0.079c0.037-0.027 0.074-0.053 0.111-0.080 0.039-0.027 0.078-0.053 0.117-0.079s0.078-0.053 0.118-0.080c0.041-0.027 0.082-0.053 0.123-0.079s0.083-0.053 0.125-0.080c0.043-0.027 0.086-0.053 0.129-0.080 0.044-0.027 0.089-0.053 0.134-0.079s0.091-0.053 0.137-0.080c0.047-0.027 0.095-0.053 0.143-0.079 0.049-0.027 0.098-0.053 0.147-0.080 0.050-0.027 0.101-0.053 0.152-0.080 0.053-0.027 0.106-0.053 0.159-0.080 0.054-0.027 0.109-0.053 0.165-0.079 0.057-0.027 0.113-0.054 0.171-0.080 0.059-0.027 0.119-0.053 0.179-0.079 0.062-0.027 0.125-0.053 0.188-0.080 0.065-0.027 0.131-0.053 0.197-0.080 0.068-0.027 0.138-0.054 0.207-0.080 0.073-0.027 0.145-0.054 0.219-0.079 0.077-0.027 0.155-0.054 0.233-0.080 0.083-0.027 0.166-0.054 0.25-0.079 0.090-0.028 0.18-0.054 0.271-0.080 0.098-0.028 0.197-0.054 0.297-0.080 0.109-0.028 0.219-0.054 0.33-0.080 0.123-0.028 0.248-0.055 0.373-0.079 0.148-0.029 0.298-0.055 0.449-0.080 0.192-0.031 0.385-0.057 0.579-0.079v0zM19.216 16.523c-0.557 0-1.118 0.56-1.118 1.118 0 0.565 0.561 1.118 1.118 1.118 0.845 0 1.399-0.552 1.399-1.118 0-0.557-0.554-1.118-1.399-1.118v0zM25.363 16.523c-0.553 0-1.11 0.56-1.11 1.118 0 0.565 0.558 1.118 1.11 1.118 0.838 0 1.399-0.552 1.399-1.118 0-0.557-0.561-1.118-1.399-1.118v0zM7.76 8.416c-0.838 0-1.683 0.553-1.683 1.394 0 0.839 0.845 1.399 1.683 1.399s1.395-0.56 1.395-1.399c0-0.841-0.557-1.394-1.395-1.394v0zM15.582 11.209c0.841 0 1.399-0.56 1.399-1.399 0-0.841-0.558-1.394-1.399-1.394-0.838 0-1.678 0.553-1.678 1.394 0 0.839 0.841 1.399 1.678 1.399v0zM15.262 14.686c0.024-0.023 0.049-0.045 0.073-0.068s0.049-0.045 0.074-0.067c0.025-0.023 0.051-0.045 0.077-0.068s0.052-0.045 0.078-0.067c0.026-0.023 0.053-0.045 0.080-0.067s0.054-0.045 0.081-0.068c0.028-0.023 0.056-0.045 0.085-0.068s0.057-0.045 0.085-0.067c0.029-0.023 0.059-0.045 0.089-0.068s0.060-0.045 0.090-0.067c0.031-0.023 0.062-0.045 0.093-0.068s0.063-0.045 0.095-0.067c0.032-0.023 0.065-0.045 0.098-0.068s0.067-0.045 0.101-0.067c0.034-0.023 0.068-0.045 0.102-0.068 0.035-0.023 0.072-0.045 0.107-0.067s0.073-0.045 0.109-0.068c0.038-0.023 0.076-0.045 0.114-0.067s0.077-0.045 0.117-0.068c0.040-0.023 0.080-0.045 0.12-0.068 0.041-0.023 0.084-0.045 0.126-0.067s0.086-0.045 0.129-0.068c0.044-0.023 0.089-0.045 0.134-0.067 0.047-0.023 0.093-0.045 0.14-0.068 0.048-0.023 0.096-0.045 0.145-0.067 0.050-0.023 0.1-0.045 0.151-0.068 0.053-0.023 0.106-0.045 0.159-0.067 0.055-0.023 0.111-0.045 0.167-0.068 0.058-0.023 0.117-0.045 0.176-0.067 0.061-0.023 0.123-0.046 0.186-0.068 0.066-0.023 0.131-0.046 0.198-0.067 0.070-0.023 0.141-0.046 0.212-0.068 0.076-0.023 0.152-0.046 0.23-0.068 0.083-0.023 0.167-0.046 0.252-0.067 0.093-0.024 0.186-0.046 0.28-0.067 0.105-0.024 0.21-0.047 0.316-0.068 0.126-0.025 0.254-0.047 0.383-0.067 0.163-0.026 0.327-0.049 0.493-0.068 0.412-0.047 0.834-0.072 1.263-0.073h0.059c0.406 0.001 0.807 0.026 1.203 0.073 0.159 0.019 0.318 0.042 0.475 0.068 0.124 0.021 0.248 0.043 0.37 0.067 0.103 0.021 0.205 0.044 0.307 0.068 0.091 0.021 0.182 0.044 0.272 0.067 0.082 0.022 0.164 0.044 0.246 0.067 0.075 0.022 0.15 0.044 0.225 0.068 0.070 0.022 0.139 0.044 0.208 0.068 0.065 0.022 0.13 0.044 0.195 0.067 0.061 0.022 0.123 0.044 0.183 0.068 0.058 0.022 0.116 0.044 0.174 0.067 0.055 0.022 0.111 0.044 0.166 0.068 0.053 0.022 0.106 0.044 0.158 0.067 0.050 0.022 0.1 0.045 0.15 0.068 0.048 0.022 0.096 0.045 0.145 0.067 0.047 0.022 0.093 0.045 0.14 0.068 0.045 0.022 0.089 0.045 0.134 0.067 0.043 0.022 0.086 0.045 0.129 0.068 0.042 0.022 0.084 0.045 0.126 0.067s0.081 0.045 0.12 0.068c0.039 0.022 0.079 0.045 0.117 0.068s0.076 0.045 0.114 0.067c0.037 0.022 0.073 0.045 0.11 0.068s0.072 0.045 0.108 0.067c0.035 0.022 0.069 0.045 0.104 0.068s0.068 0.045 0.102 0.067c0.033 0.022 0.066 0.045 0.099 0.068s0.064 0.045 0.096 0.067c0.032 0.022 0.063 0.045 0.094 0.068s0.061 0.045 0.091 0.067c0.030 0.023 0.060 0.045 0.090 0.068s0.058 0.045 0.087 0.067c0.029 0.023 0.058 0.045 0.086 0.068s0.055 0.045 0.083 0.068c0.027 0.022 0.055 0.045 0.082 0.067s0.053 0.045 0.079 0.067c0.026 0.023 0.053 0.045 0.078 0.068s0.051 0.045 0.076 0.067c0.025 0.023 0.050 0.045 0.075 0.068s0.048 0.045 0.073 0.067c0.024 0.023 0.048 0.045 0.071 0.068s0.047 0.045 0.070 0.067c0.023 0.022 0.045 0.045 0.068 0.068s0.045 0.045 0.067 0.067c0.022 0.022 0.043 0.045 0.065 0.068s0.044 0.045 0.065 0.068c0.021 0.022 0.041 0.045 0.062 0.067s0.041 0.045 0.062 0.068c0.020 0.022 0.040 0.045 0.060 0.068s0.039 0.045 0.059 0.067c0.020 0.022 0.039 0.045 0.058 0.067s0.037 0.045 0.056 0.068c0.019 0.023 0.038 0.045 0.056 0.067s0.036 0.045 0.053 0.068c0.018 0.023 0.036 0.045 0.054 0.068s0.035 0.045 0.052 0.068c0.017 0.022 0.034 0.045 0.050 0.067s0.034 0.045 0.050 0.067c0.016 0.022 0.032 0.045 0.048 0.068s0.032 0.045 0.048 0.068c0.016 0.022 0.031 0.045 0.047 0.067s0.030 0.045 0.046 0.067c0.015 0.023 0.030 0.045 0.045 0.068s0.029 0.045 0.043 0.067c0.015 0.023 0.029 0.045 0.043 0.068s0.028 0.045 0.041 0.067c0.014 0.023 0.027 0.045 0.041 0.068s0.028 0.045 0.041 0.068c0.013 0.022 0.025 0.045 0.038 0.067s0.026 0.045 0.038 0.067c0.012 0.023 0.025 0.045 0.037 0.068s0.024 0.045 0.036 0.067c0.012 0.022 0.024 0.045 0.036 0.067s0.023 0.045 0.034 0.067c0.012 0.022 0.023 0.045 0.034 0.068s0.023 0.045 0.033 0.067c0.011 0.022 0.021 0.045 0.031 0.067s0.021 0.045 0.031 0.067 0.021 0.045 0.031 0.068 0.019 0.045 0.029 0.067c0.010 0.022 0.020 0.045 0.029 0.067s0.019 0.045 0.028 0.067c0.009 0.023 0.018 0.045 0.027 0.068s0.018 0.045 0.026 0.067c0.009 0.022 0.017 0.045 0.026 0.067s0.016 0.045 0.024 0.067c0.008 0.023 0.017 0.045 0.024 0.068s0.015 0.045 0.023 0.067c0.007 0.022 0.015 0.045 0.022 0.067s0.015 0.045 0.022 0.067c0.007 0.023 0.014 0.045 0.021 0.068s0.014 0.045 0.020 0.067c0.006 0.023 0.014 0.045 0.020 0.067s0.012 0.045 0.018 0.068c0.006 0.022 0.012 0.045 0.018 0.067s0.012 0.045 0.017 0.067c0.006 0.022 0.011 0.045 0.016 0.067s0.011 0.045 0.016 0.068c0.005 0.022 0.010 0.045 0.015 0.067s0.009 0.045 0.014 0.067c0.005 0.023 0.009 0.045 0.014 0.067s0.009 0.045 0.013 0.068c0.004 0.022 0.008 0.045 0.012 0.067s0.008 0.045 0.012 0.067c0.004 0.023 0.008 0.045 0.012 0.068s0.006 0.045 0.009 0.067c0.003 0.022 0.006 0.045 0.009 0.067s0.006 0.045 0.009 0.067c0.003 0.023 0.005 0.045 0.007 0.068s0.005 0.045 0.008 0.067c0.002 0.022 0.005 0.045 0.007 0.067s0.003 0.045 0.005 0.067c0.002 0.023 0.004 0.045 0.006 0.068s0.003 0.045 0.005 0.067c0.001 0.022 0.002 0.045 0.003 0.067s0.002 0.045 0.003 0.067c0.001 0.023 0.003 0.045 0.003 0.068s0.001 0.045 0.001 0.067c0 0.022 0.001 0.045 0.001 0.067l0 0.020v0.127c-0 0.019-0 0.037-0.001 0.056-0.001 0.023-0.001 0.045-0.002 0.067s-0.002 0.045-0.003 0.068c-0.001 0.022-0.002 0.045-0.003 0.067s-0.003 0.045-0.004 0.067c-0.002 0.023-0.003 0.045-0.005 0.067s-0.004 0.045-0.006 0.068c-0.003 0.022-0.004 0.045-0.007 0.067s-0.005 0.045-0.008 0.067c-0.003 0.023-0.006 0.045-0.009 0.068s-0.006 0.045-0.009 0.067c-0.003 0.022-0.007 0.045-0.010 0.067s-0.007 0.045-0.011 0.067c-0.003 0.023-0.008 0.045-0.012 0.068s-0.008 0.045-0.012 0.067c-0.004 0.022-0.009 0.045-0.013 0.067s-0.009 0.045-0.014 0.067c-0.005 0.023-0.010 0.045-0.015 0.068s-0.010 0.045-0.016 0.067c-0.005 0.022-0.011 0.045-0.016 0.067s-0.012 0.045-0.017 0.067c-0.006 0.023-0.012 0.045-0.018 0.067s-0.012 0.045-0.019 0.068c-0.006 0.023-0.013 0.045-0.020 0.067s-0.013 0.045-0.020 0.067c-0.007 0.023-0.014 0.045-0.021 0.068s-0.015 0.045-0.022 0.067c-0.008 0.023-0.015 0.045-0.023 0.067s-0.016 0.045-0.024 0.067c-0.008 0.023-0.016 0.045-0.025 0.068s-0.017 0.045-0.025 0.067c-0.009 0.022-0.018 0.045-0.026 0.067s-0.018 0.045-0.027 0.067c-0.009 0.023-0.018 0.045-0.028 0.068s-0.019 0.045-0.029 0.067c-0.010 0.023-0.020 0.045-0.029 0.067s-0.021 0.045-0.031 0.068c-0.011 0.022-0.021 0.045-0.032 0.067s-0.021 0.045-0.032 0.067c-0.011 0.023-0.022 0.045-0.033 0.067s-0.023 0.045-0.034 0.068c-0.012 0.022-0.023 0.045-0.035 0.067s-0.024 0.045-0.036 0.067c-0.012 0.022-0.024 0.045-0.037 0.067s-0.025 0.045-0.037 0.068c-0.013 0.022-0.026 0.045-0.038 0.067s-0.026 0.045-0.039 0.067c-0.013 0.023-0.026 0.045-0.040 0.067s-0.027 0.045-0.041 0.068-0.028 0.045-0.042 0.067-0.028 0.045-0.043 0.067c-0.015 0.023-0.029 0.045-0.044 0.067s-0.029 0.045-0.044 0.068c-0.015 0.022-0.030 0.045-0.046 0.067s-0.031 0.045-0.047 0.067c-0.015 0.023-0.031 0.045-0.047 0.068s-0.032 0.045-0.048 0.067c-0.016 0.023-0.033 0.045-0.050 0.067s-0.033 0.045-0.050 0.067c-0.017 0.023-0.034 0.045-0.051 0.067s-0.035 0.045-0.052 0.068c-0.018 0.023-0.035 0.045-0.053 0.067s-0.036 0.045-0.054 0.067c-0.018 0.023-0.037 0.045-0.055 0.068s-0.037 0.045-0.056 0.067c-0.019 0.023-0.038 0.045-0.056 0.067s-0.039 0.045-0.058 0.067c-0.020 0.023-0.039 0.045-0.059 0.068s-0.040 0.045-0.060 0.067c-0.020 0.023-0.040 0.045-0.061 0.067s-0.041 0.045-0.062 0.068c-0.021 0.022-0.042 0.045-0.063 0.067s-0.043 0.045-0.064 0.067c-0.021 0.023-0.043 0.045-0.065 0.067s-0.044 0.045-0.066 0.068c-0.022 0.022-0.044 0.045-0.067 0.067s-0.045 0.045-0.068 0.067c-0.023 0.023-0.046 0.045-0.070 0.068s-0.047 0.045-0.070 0.067c-0.023 0.022-0.047 0.045-0.071 0.067s-0.048 0.045-0.073 0.067c-0.024 0.023-0.049 0.045-0.074 0.067s-0.050 0.045-0.075 0.068c-0.025 0.023-0.050 0.045-0.076 0.067s-0.051 0.045-0.077 0.067c-0.026 0.023-0.052 0.045-0.078 0.067s-0.053 0.045-0.080 0.068c-0.027 0.023-0.054 0.045-0.081 0.067s-0.055 0.045-0.082 0.067c-0.028 0.023-0.055 0.045-0.083 0.068s-0.056 0.045-0.085 0.067c-0.028 0.023-0.057 0.045-0.086 0.067s-0.059 0.045-0.088 0.067c-0.029 0.023-0.059 0.045-0.089 0.068l-0.031 0.023 0.013 0.044 0.041 0.135 0.020 0.068 0.020 0.067 0.020 0.067 0.021 0.068 0.020 0.067 0.020 0.067 0.020 0.067 0.020 0.068 0.021 0.067 0.020 0.067 0.020 0.067 0.020 0.068 0.020 0.067 0.021 0.067 0.020 0.067 0.020 0.068 0.020 0.067 0.020 0.067 0.020 0.067 0.020 0.068 0.021 0.067 0.020 0.067 0.020 0.067 0.020 0.068 0.020 0.067 0.041 0.135 0.020 0.068 0.020 0.067 0.020 0.067 0.041 0.135 0.020 0.067 0.020 0.067 0.020 0.068 0.020 0.067 0.021 0.067 0.020 0.068 0.015 0.048-0.088-0.048-0.123-0.068-2.855-1.563-0.042 0.011c-0.090 0.023-0.18 0.045-0.27 0.067-0.091 0.023-0.183 0.045-0.275 0.068-0.094 0.023-0.188 0.045-0.283 0.067-0.099 0.023-0.198 0.046-0.297 0.067-0.107 0.023-0.213 0.046-0.32 0.067-0.119 0.024-0.238 0.047-0.357 0.068-0.144 0.025-0.289 0.048-0.433 0.067-0.233 0.032-0.466 0.055-0.698 0.067-0.126 0.007-0.253 0.010-0.379 0.010-0.165 0-0.329-0.003-0.492-0.010-0.283-0.012-0.564-0.035-0.839-0.067-0.163-0.019-0.324-0.042-0.484-0.067-0.126-0.021-0.252-0.043-0.377-0.068-0.105-0.021-0.21-0.044-0.314-0.067-0.093-0.021-0.186-0.044-0.278-0.067-0.084-0.022-0.167-0.044-0.25-0.067-0.077-0.022-0.153-0.044-0.229-0.068-0.071-0.022-0.141-0.044-0.211-0.067-0.066-0.022-0.132-0.044-0.197-0.067-0.062-0.022-0.124-0.045-0.185-0.067-0.058-0.022-0.117-0.045-0.175-0.068-0.055-0.022-0.111-0.044-0.166-0.067-0.053-0.022-0.107-0.044-0.159-0.067-0.050-0.022-0.1-0.045-0.15-0.067s-0.097-0.045-0.145-0.068c-0.047-0.022-0.094-0.045-0.14-0.067-0.045-0.022-0.090-0.045-0.134-0.067-0.043-0.022-0.085-0.045-0.128-0.067s-0.084-0.045-0.125-0.068c-0.041-0.022-0.080-0.045-0.12-0.067-0.039-0.022-0.077-0.045-0.116-0.067s-0.076-0.045-0.114-0.068c-0.037-0.022-0.073-0.045-0.108-0.067s-0.072-0.045-0.107-0.067c-0.035-0.022-0.069-0.045-0.103-0.067s-0.067-0.045-0.1-0.068c-0.033-0.022-0.066-0.045-0.098-0.067s-0.063-0.045-0.094-0.067c-0.031-0.022-0.063-0.045-0.093-0.067s-0.060-0.045-0.090-0.068c-0.029-0.022-0.059-0.045-0.089-0.067s-0.057-0.045-0.085-0.067c-0.028-0.023-0.057-0.045-0.085-0.068s-0.054-0.045-0.081-0.067c-0.027-0.022-0.054-0.045-0.081-0.067s-0.051-0.045-0.077-0.067c-0.026-0.022-0.052-0.045-0.077-0.068s-0.049-0.045-0.074-0.067c-0.024-0.022-0.049-0.045-0.073-0.067s-0.047-0.045-0.070-0.067c-0.024-0.023-0.047-0.045-0.070-0.067s-0.045-0.045-0.068-0.068c-0.022-0.022-0.045-0.045-0.066-0.067s-0.044-0.045-0.065-0.067c-0.021-0.022-0.043-0.045-0.063-0.068s-0.042-0.045-0.063-0.067c-0.020-0.022-0.040-0.045-0.060-0.067s-0.041-0.045-0.060-0.067c-0.019-0.022-0.038-0.045-0.058-0.068s-0.038-0.045-0.057-0.067c-0.019-0.022-0.037-0.045-0.056-0.067s-0.037-0.045-0.054-0.068c-0.018-0.022-0.036-0.045-0.054-0.067s-0.035-0.045-0.052-0.067c-0.017-0.023-0.035-0.045-0.052-0.067s-0.033-0.045-0.050-0.068c-0.016-0.022-0.033-0.045-0.049-0.067s-0.032-0.045-0.048-0.067c-0.016-0.022-0.031-0.045-0.047-0.068s-0.031-0.045-0.046-0.067c-0.015-0.022-0.030-0.045-0.044-0.067s-0.029-0.045-0.044-0.067c-0.014-0.023-0.029-0.045-0.043-0.067s-0.028-0.045-0.041-0.068c-0.014-0.022-0.028-0.045-0.041-0.067s-0.026-0.045-0.040-0.067c-0.013-0.022-0.026-0.045-0.039-0.068s-0.026-0.045-0.039-0.067c-0.012-0.022-0.024-0.045-0.037-0.067s-0.024-0.045-0.036-0.067c-0.012-0.022-0.024-0.045-0.036-0.068s-0.023-0.045-0.034-0.067c-0.011-0.022-0.023-0.045-0.034-0.067s-0.022-0.045-0.032-0.067-0.021-0.045-0.032-0.068-0.021-0.045-0.032-0.067c-0.010-0.022-0.020-0.045-0.030-0.067s-0.020-0.045-0.030-0.067c-0.010-0.023-0.019-0.045-0.029-0.068s-0.018-0.045-0.028-0.067c-0.009-0.023-0.019-0.045-0.028-0.067s-0.018-0.045-0.026-0.067c-0.009-0.022-0.017-0.045-0.025-0.068s-0.017-0.045-0.026-0.067c-0.008-0.022-0.016-0.045-0.024-0.067s-0.016-0.045-0.023-0.068c-0.008-0.022-0.016-0.045-0.023-0.067s-0.014-0.045-0.021-0.067c-0.007-0.022-0.014-0.045-0.021-0.067s-0.015-0.045-0.021-0.068c-0.007-0.022-0.013-0.045-0.019-0.067s-0.013-0.045-0.019-0.067c-0.006-0.023-0.013-0.045-0.019-0.067s-0.011-0.045-0.017-0.068c-0.006-0.022-0.012-0.045-0.017-0.067s-0.011-0.045-0.017-0.067c-0.005-0.022-0.010-0.045-0.015-0.068s-0.010-0.045-0.015-0.067c-0.005-0.022-0.010-0.045-0.015-0.067s-0.009-0.045-0.013-0.067c-0.004-0.023-0.009-0.045-0.013-0.067s-0.008-0.045-0.012-0.068c-0.004-0.022-0.007-0.045-0.011-0.067s-0.007-0.045-0.011-0.067c-0.003-0.023-0.007-0.045-0.010-0.067s-0.006-0.045-0.009-0.068c-0.003-0.022-0.006-0.045-0.009-0.067s-0.006-0.045-0.008-0.067c-0.003-0.022-0.004-0.045-0.007-0.067s-0.005-0.045-0.007-0.068c-0.002-0.022-0.004-0.045-0.006-0.067s-0.003-0.045-0.005-0.067c-0.002-0.023-0.003-0.045-0.005-0.068s-0.003-0.045-0.004-0.067c-0.001-0.022-0.002-0.045-0.003-0.067l-0.003-0.067c-0.001-0.023-0.002-0.045-0.003-0.068s-0-0.045-0.001-0.067l-0.001-0.067c-0-0.022-0.001-0.044-0.001-0.065l0-0.002c0-0.022 0.001-0.045 0.001-0.067s0-0.045 0.001-0.067c0-0.022 0-0.045 0.001-0.067s0.002-0.045 0.003-0.068c0.001-0.022 0.002-0.045 0.003-0.067s0.002-0.045 0.003-0.067c0.001-0.023 0.003-0.045 0.005-0.067s0.003-0.045 0.005-0.068c0.002-0.022 0.003-0.045 0.005-0.067s0.004-0.045 0.006-0.067c0.002-0.023 0.005-0.045 0.007-0.067s0.004-0.045 0.007-0.068c0.003-0.022 0.006-0.045 0.009-0.067s0.006-0.045 0.009-0.067c0.003-0.022 0.006-0.045 0.009-0.067s0.007-0.045 0.010-0.068c0.003-0.023 0.007-0.045 0.011-0.067s0.007-0.045 0.011-0.067c0.004-0.023 0.009-0.045 0.013-0.068s0.009-0.045 0.013-0.067c0.004-0.022 0.008-0.045 0.013-0.067s0.010-0.045 0.015-0.067c0.005-0.023 0.010-0.045 0.015-0.068s0.010-0.045 0.015-0.067c0.005-0.023 0.011-0.045 0.017-0.067s0.011-0.045 0.017-0.067c0.006-0.023 0.011-0.045 0.017-0.068s0.013-0.045 0.019-0.067c0.006-0.022 0.013-0.045 0.019-0.067s0.012-0.045 0.019-0.068c0.007-0.022 0.014-0.045 0.021-0.067s0.014-0.045 0.021-0.067c0.007-0.022 0.014-0.045 0.022-0.067s0.016-0.045 0.023-0.068c0.008-0.022 0.015-0.045 0.023-0.067s0.016-0.045 0.024-0.067c0.008-0.023 0.017-0.045 0.025-0.067s0.017-0.045 0.026-0.068c0.009-0.022 0.018-0.045 0.026-0.067s0.018-0.045 0.028-0.067c0.009-0.023 0.018-0.045 0.027-0.067s0.020-0.045 0.029-0.068c0.010-0.022 0.020-0.045 0.030-0.067s0.020-0.045 0.030-0.067c0.010-0.023 0.021-0.045 0.032-0.067s0.021-0.045 0.032-0.068c0.011-0.022 0.022-0.045 0.033-0.067s0.023-0.045 0.034-0.067c0.011-0.023 0.022-0.045 0.034-0.067s0.024-0.045 0.036-0.068c0.012-0.022 0.024-0.045 0.036-0.067s0.024-0.045 0.037-0.067c0.013-0.023 0.026-0.045 0.039-0.068s0.026-0.045 0.039-0.068c0.013-0.023 0.026-0.045 0.040-0.067s0.028-0.045 0.041-0.068c0.014-0.022 0.027-0.045 0.041-0.067s0.029-0.045 0.043-0.068c0.015-0.023 0.029-0.045 0.044-0.067s0.029-0.045 0.045-0.067c0.015-0.023 0.031-0.045 0.046-0.068s0.031-0.045 0.046-0.068c0.016-0.023 0.032-0.045 0.048-0.067s0.032-0.045 0.049-0.068c0.017-0.023 0.033-0.045 0.050-0.067s0.034-0.045 0.052-0.068c0.017-0.023 0.034-0.045 0.052-0.068s0.036-0.045 0.054-0.067c0.018-0.023 0.036-0.045 0.054-0.068s0.037-0.045 0.056-0.067c0.019-0.023 0.038-0.045 0.057-0.067s0.038-0.045 0.058-0.068c0.020-0.023 0.040-0.045 0.060-0.068s0.040-0.045 0.060-0.067c0.021-0.023 0.042-0.045 0.063-0.068s0.042-0.045 0.063-0.068c0.022-0.023 0.044-0.045 0.065-0.067s0.044-0.045 0.067-0.068c0.023-0.023 0.045-0.045 0.068-0.067s0.046-0.045 0.070-0.068c0.023-0.023 0.046-0.045 0.070-0.068v0z"></path>
</svg>
