<?xml version="1.0" encoding="utf-8"?>
<!-- Generated by IcoMoon.io -->
<!DOCTYPE svg PUBLIC "-//W3C//DTD SVG 1.1//EN" "http://www.w3.org/Graphics/SVG/1.1/DTD/svg11.dtd">
<svg version="1.1" xmlns="http://www.w3.org/2000/svg" xmlns:xlink="http://www.w3.org/1999/xlink" width="32" height="32" viewBox="0 0 32 32">
<path fill="#444444" d="M20.882 4.982c-0.903 0.395-1.11 1.336-0.451 1.994 0.32 0.32 0.621 0.376 1.937 0.376 1.844 0 3.085 0.489 4.026 1.58 1.147 1.298 1.279 1.693 1.279 4.063 0 2.107 0 2.145 0.489 2.427 1.129 0.64 1.881-0.151 2.144-2.257 0.339-2.746-1.298-5.944-3.762-7.411-1.618-0.94-4.383-1.317-5.662-0.771v0 0zM11.627 8.481c-2.107 0.752-4.138 2.201-6.32 4.533-5.173 5.493-4.834 10.722 0.865 13.506 5.925 2.897 13.901 1.937 18.246-2.201 3.254-3.085 2.859-6.96-0.847-8.277-0.658-0.226-0.865-0.395-0.771-0.602 0.339-0.828 0.451-1.787 0.263-2.351-0.583-1.787-2.709-2.201-5.869-1.129l-1.26 0.433 0.113-1.26c0.132-1.486-0.188-2.295-1.072-2.746-0.734-0.376-2.144-0.339-3.348 0.094v0 0zM16.857 15.761c2.803 0.771 4.514 2.464 4.514 4.477 0 2.238-1.994 4.251-5.229 5.323-1.731 0.564-4.947 0.677-6.527 0.245-2.991-0.846-4.684-2.502-4.684-4.627 0-1.166 0.508-2.182 1.618-3.216 1.035-0.978 1.825-1.448 3.348-1.956 2.295-0.771 4.759-0.865 6.96-0.245v0zM10.931 17.585c-1.9 0.884-2.916 2.238-2.916 3.931 0 1.543 0.677 2.596 2.163 3.386 1.147 0.621 3.254 0.564 4.533-0.094 1.637-0.865 2.709-2.464 2.709-4.026-0.019-1.279-1.148-2.803-2.483-3.348-1.072-0.452-2.878-0.377-4.007 0.15v0 0zM12.304 21.122c0.132 0.132 0.226 0.452 0.226 0.734 0 0.941-1.58 1.712-2.22 1.072-0.357-0.357-0.263-1.242 0.151-1.655s1.486-0.508 1.844-0.151v0 0zM21.202 8.838c-0.865 0.865-0.282 1.9 1.091 1.9 1.185 0 1.712 0.602 1.712 1.956 0 0.847 0.075 1.091 0.414 1.317 1.016 0.715 1.844-0.075 1.844-1.749 0-2.050-1.467-3.593-3.555-3.743-0.94-0.075-1.166-0.019-1.505 0.32v0 0z"></path>
</svg>
