<?xml version="1.0" encoding="utf-8"?>
<!-- Generated by IcoMoon.io -->
<!DOCTYPE svg PUBLIC "-//W3C//DTD SVG 1.1//EN" "http://www.w3.org/Graphics/SVG/1.1/DTD/svg11.dtd">
<svg version="1.1" xmlns="http://www.w3.org/2000/svg" xmlns:xlink="http://www.w3.org/1999/xlink" width="32" height="32" viewBox="0 0 32 32">
<path fill="#444444" d="M13.976 17.045l0.263 0.263q0.105 0.105 0.21 0.197t0.21 0.197l0.316 0.316q0.526 0.526 0.421 0.92t-0.657 0.92q-0.237 0.263-0.776 0.802t-1.157 1.17-1.197 1.21-0.894 0.92q-0.473 0.473-0.657 0.828t0.158 0.697q0.237 0.237 0.605 0.631t0.631 0.657q0.447 0.447 0.329 0.789t-0.776 0.395q-0.684 0.079-1.525 0.184t-1.736 0.197-1.749 0.197-1.565 0.184q-0.684 0.079-0.947-0.171t-0.21-0.881q0.053-0.657 0.145-1.473t0.197-1.67 0.197-1.696 0.171-1.552q0.079-0.763 0.434-0.973t0.802 0.237q0.263 0.263 0.684 0.644t0.71 0.671 0.552 0.184 0.605-0.421q0.342-0.342 0.934-0.947t1.236-1.249 1.249-1.262 0.973-0.986q0.158-0.158 0.355-0.302t0.434-0.197 0.487 0.026 0.539 0.342zM27.284 3.79q0.684-0.079 0.947 0.171t0.21 0.881q-0.053 0.657-0.145 1.473t-0.197 1.67-0.197 1.709-0.171 1.565q-0.079 0.763-0.434 0.96t-0.802-0.25q-0.263-0.263-0.723-0.684t-0.75-0.71-0.5-0.25-0.526 0.355q-0.368 0.368-0.96 0.973t-1.249 1.276-1.289 1.302l-0.973 0.973q-0.158 0.158-0.342 0.316t-0.408 0.237-0.473 0.026-0.513-0.342l-0.999-0.999q-0.526-0.526-0.46-0.96t0.592-0.96q0.237-0.237 0.789-0.802t1.183-1.197 1.223-1.236 0.934-0.92q0.473-0.473 0.592-0.776t-0.224-0.644q-0.237-0.237-0.565-0.579t-0.592-0.605q-0.447-0.447-0.329-0.789t0.776-0.421 1.512-0.184 1.749-0.197 1.749-0.197 1.565-0.184z"></path>
</svg>
